<svg width="180" height="40" viewBox="0 0 715 128" xmlns="http://www.w3.org/2000/svg"><g fill="none" fill-rule="evenodd"><g transform="translate(8 5)"><path fill="#3D3FDD" d="M90 71L72.7187904 45 45.9434091 45 29 71z"/><path fill="#3D3FDD" d="M59 116L41.6982884 89 17.3793939 89 0 116z"/><path fill="#4951FF" d="M114.667693 116L149 116 74.8535238 0 58 26.3516425z"/><path fill="#4951FF" d="M58.0597201 116L92 116 45.9473015 45 29 71.2968765z"/><path fill="#4951FF" d="M35 116L17.5239568 89 0 116z"/></g><path d="M187.758 121c-6.263 0-11.288-1.836-15.076-5.508-3.788-3.672-5.682-8.677-5.682-15.016v-7.243c0-6.44 2.247-11.57 6.742-15.393 4.495-3.823 11.187-5.735 20.076-5.735h20.758v-5.583c0-2.717-.455-4.854-1.364-6.414-.909-1.56-2.626-2.716-5.151-3.47-2.526-.755-6.263-1.133-11.213-1.133h-24.393V42.527c10-3.018 20.858-4.527 32.575-4.527 10.707 0 18.712 2.012 24.015 6.036C234.35 48.061 237 55.053 237 65.013v55.082h-17.727l-3.637-8.602c-1.11 1.106-3.08 2.414-5.909 3.923-2.828 1.51-6.187 2.817-10.075 3.924a43.248 43.248 0 0 1-11.894 1.66zm11.182-16c2.309 0 5.17-.533 8.584-1.6 3.414-1.066 5.572-1.853 6.476-2.36V82l-13.554.914c-7.63.61-11.446 3.96-11.446 10.053v3.35c0 5.789 3.313 8.683 9.94 8.683zM253 5h22.424v62.097h9.546l17.878-28.034h22.728l-23.94 38.132L328 120h-22.727l-20.606-32.857h-9.243V120H253V5zm118.925 116c-9.106 0-16.311-1.283-21.615-3.848-5.303-2.566-9.18-6.841-11.633-12.827C336.226 98.338 335 90.064 335 79.5c0-10.966 1.226-19.442 3.677-25.428 2.452-5.986 6.33-10.161 11.633-12.526C355.614 39.182 362.82 38 371.925 38c9.206 0 16.461 1.232 21.765 3.697 5.303 2.465 9.18 6.69 11.633 12.677C407.774 60.36 409 68.735 409 79.5s-1.2 19.14-3.602 25.126c-2.402 5.986-6.255 10.212-11.558 12.677-5.304 2.465-12.609 3.697-21.915 3.697zm-.001-18c3.96 0 6.954-.524 8.985-1.572 2.03-1.047 3.553-3.243 4.568-6.586C386.492 91.5 387 86.385 387 79.5s-.508-12-1.523-15.342c-1.015-3.343-2.538-5.539-4.568-6.586-2.03-1.048-5.026-1.572-8.985-1.572-3.858 0-6.802.524-8.833 1.572-2.03 1.047-3.553 3.243-4.568 6.586C357.508 67.5 357 72.615 357 79.5s.508 12 1.523 15.342c1.015 3.343 2.538 5.539 4.568 6.586 2.03 1.048 4.975 1.572 8.833 1.572zm77.447 17c-8.557 0-14.925-2.13-19.104-6.389-4.178-4.26-6.267-10.899-6.267-19.918V5h22.351v85.386c0 4.309.654 7.39 1.963 9.245 1.31 1.854 3.474 2.981 6.494 3.382l6.192.902V120h-11.629zm39.387 1c-6.263 0-11.288-1.836-15.076-5.508-3.788-3.672-5.682-8.677-5.682-15.016v-7.243c0-6.44 2.247-11.57 6.742-15.393 4.495-3.823 11.187-5.735 20.076-5.735h20.758v-5.583c0-2.717-.455-4.854-1.364-6.414-.909-1.56-2.626-2.716-5.151-3.47-2.526-.755-6.263-1.133-11.213-1.133h-24.393V42.527c10-3.018 20.858-4.527 32.575-4.527 10.707 0 18.712 2.012 24.015 6.036C535.35 48.061 538 55.053 538 65.013v55.082h-17.727l-3.637-8.602c-1.11 1.106-3.08 2.414-5.909 3.923-2.828 1.51-6.187 2.817-10.075 3.924a43.248 43.248 0 0 1-11.894 1.66zm11.182-16c2.309 0 5.17-.533 8.584-1.6 3.414-1.066 5.572-1.853 6.476-2.36V82l-13.554.914c-7.63.61-11.446 3.96-11.446 10.053v3.35c0 5.789 3.313 8.683 9.94 8.683zm81.175 16c-9.806 0-17.11-3.168-21.912-9.503C554.4 105.16 552 94.803 552 80.423c0-10.258.935-18.454 2.805-24.588 1.87-6.135 5.03-10.66 9.478-13.576 4.448-2.917 10.564-4.375 18.348-4.375 6.672 0 13.597 1.257 20.775 3.771V5H626v115.095h-18.955l-3.64-7.693c-2.83 2.413-6.267 4.45-10.31 6.11-4.044 1.658-8.038 2.488-11.98 2.488zm7.46-18c4.86 0 9.668-1.495 14.425-4.486V58.14c-2.632-.997-4.985-1.77-7.06-2.318a25.153 25.153 0 0 0-6.453-.822c-3.948 0-7.01.673-9.186 2.019-2.176 1.345-3.77 3.788-4.783 7.327-1.012 3.539-1.518 8.598-1.518 15.177 0 6.28.48 11.09 1.442 14.43s2.48 5.683 4.555 7.028c2.075 1.346 4.935 2.019 8.579 2.019zm88.043 18c-9.18 0-16.392-1.207-21.638-3.622-5.245-2.414-9.053-6.59-11.424-12.525-2.37-5.936-3.556-14.286-3.556-25.051 0-11.067 1.11-19.593 3.329-25.58 2.22-5.985 5.876-10.186 10.97-12.6C659.394 39.207 666.581 38 675.862 38c8.272 0 14.778.805 19.52 2.415 4.74 1.61 8.196 4.426 10.365 8.45C707.916 52.89 709 58.574 709 65.918c0 7.847-2.244 13.431-6.734 16.751-4.489 3.32-11.02 4.98-19.595 4.98h-20.428c.202 4.326.858 7.671 1.968 10.036 1.11 2.364 3.076 4.074 5.9 5.13 2.825 1.057 6.961 1.585 12.409 1.585h23.756v13.13c-5.346 1.106-10.188 1.96-14.526 2.565-4.338.603-9.382.905-15.132.905zm3.682-47c3.1 0 5.325-.622 6.675-1.866 1.35-1.243 2.025-3.358 2.025-6.343 0-4.378-1-7.438-3-9.18-2-1.74-5.4-2.611-10.2-2.611-3.5 0-6.225.572-8.175 1.716-1.95 1.145-3.375 3.16-4.275 6.045-.9 2.886-1.35 6.965-1.35 12.239h18.3z" fill="#4951FF" fill-rule="nonzero"/></g></svg>