<?xml version="1.0" encoding="UTF-8"?>
<svg width="1185px" height="255px" viewBox="0 0 1185 255" version="1.1" xmlns="http://www.w3.org/2000/svg" xmlns:xlink="http://www.w3.org/1999/xlink">
    <!-- Generator: Sketch 51.2 (57519) - http://www.bohemiancoding.com/sketch -->
    <title>Artboard</title>
    <desc>Created with Sketch.</desc>
    <defs></defs>
    <g id="Artboard" stroke="none" stroke-width="1" fill="none" fill-rule="evenodd">
        <path d="M150.099609,247.099609 C145.050756,248.92579 140.619648,250.402826 136.806152,251.530762 C132.992657,252.658697 128.668969,253.222656 123.834961,253.222656 C115.456013,253.222656 108.769068,251.262227 103.773926,247.341309 C98.7787836,243.420391 95.5830148,237.700233 94.1865234,230.180664 L93.2197266,230.180664 C86.2372698,237.915078 78.7446689,243.823222 70.7416992,247.905273 C62.7387295,251.987325 53.0977126,254.02832 41.8183594,254.02832 C29.8944716,254.02832 20.0923236,250.376013 12.4116211,243.071289 C4.73091863,235.766565 0.890625,226.206114 0.890625,214.389648 C0.890625,208.266571 1.74999141,202.78811 3.46875,197.954102 C5.18750859,193.120093 7.76560781,188.769551 11.203125,184.902344 C13.8886853,181.679671 17.4335717,178.806165 21.8378906,176.281738 C26.2422095,173.757312 30.3779104,171.743172 34.2451172,170.239258 C39.0791257,168.413077 48.8812738,165.029322 63.6518555,160.087891 C78.4224371,155.14646 88.3857164,151.279311 93.5419922,148.486328 L93.5419922,132.53418 C93.5419922,131.137688 93.246585,128.452168 92.6557617,124.477539 C92.0649385,120.50291 90.802744,116.743182 88.8691406,113.198242 C86.7206924,109.223613 83.6860548,105.759292 79.7651367,102.805176 C75.8442187,99.8510594 70.2851922,98.3740234 63.0878906,98.3740234 C58.1464597,98.3740234 53.5542204,99.2065346 49.3110352,100.871582 C45.0678499,102.536629 42.0869227,104.282217 40.3681641,106.108398 C40.3681641,108.256847 40.8784129,111.42576 41.8989258,115.615234 C42.9194387,119.804708 43.4296875,123.671857 43.4296875,127.216797 C43.4296875,130.976581 41.7378099,134.414047 38.3540039,137.529297 C34.9701979,140.644547 30.2705379,142.202148 24.2548828,142.202148 C18.8837622,142.202148 14.9360478,140.295429 12.4116211,136.481934 C9.88719441,132.668438 8.625,128.398461 8.625,123.671875 C8.625,118.730444 10.370588,114.003929 13.8618164,109.492188 C17.3530448,104.980446 21.8915736,100.952166 27.4775391,97.4072266 C32.3115476,94.399399 38.1659813,91.848155 45.0410156,89.753418 C51.91605,87.6586809 58.62985,86.6113281 65.1826172,86.6113281 C74.2060998,86.6113281 82.0746735,87.2289977 88.7885742,88.4643555 C95.502475,89.6997132 101.598605,92.358378 107.077148,96.4404297 C112.555691,100.415059 116.718247,105.812954 119.564941,112.634277 C122.411635,119.455601 123.834961,128.237251 123.834961,138.979492 C123.834961,154.340897 123.67383,167.956484 123.351563,179.82666 C123.029295,191.696837 122.868164,204.667898 122.868164,218.740234 C122.868164,222.929708 123.593254,226.259753 125.043457,228.730469 C126.49366,231.201184 128.722641,233.29589 131.730469,235.014648 C133.341805,235.98145 135.893049,236.518554 139.384277,236.625977 C142.875506,236.733399 146.447247,236.787109 150.099609,236.787109 L150.099609,247.099609 Z M93.8642578,162.021484 C84.7333528,164.707045 76.7305031,167.338854 69.8554688,169.916992 C62.9804344,172.49513 56.5888967,175.717754 50.6806641,179.584961 C45.3095435,183.237323 41.0664218,187.56101 37.9511719,192.556152 C34.8359219,197.551295 33.2783203,203.486294 33.2783203,210.361328 C33.2783203,219.277388 35.6147227,225.830057 40.2875977,230.019531 C44.9604726,234.209005 50.8954718,236.303711 58.0927734,236.303711 C65.7197647,236.303711 72.4335647,234.450702 78.234375,230.744629 C84.0351853,227.038556 88.9228317,222.661158 92.8974609,217.612305 L93.8642578,162.021484 Z M334.274414,250 L286.256836,250 C277.877888,237.861267 268.908251,224.863351 259.347656,211.005859 C249.787062,197.148368 239.850638,183.667058 229.538086,170.561523 L216.325195,182.96875 L216.325195,220.673828 C216.325195,224.541035 217.023431,227.736804 218.419922,230.26123 C219.816413,232.785657 222.07225,234.638666 225.1875,235.820312 C227.765638,236.894537 230.236316,237.700193 232.599609,238.237305 C234.962902,238.774417 237.702133,239.15039 240.817383,239.365234 L240.817383,250 L162.829102,250 L162.829102,239.365234 C165.299817,239.15039 167.877916,238.908693 170.563477,238.640137 C173.249037,238.371581 175.504874,237.968753 177.331055,237.431641 C180.338882,236.464839 182.594719,234.772961 184.098633,232.355957 C185.602547,229.938953 186.354492,226.796894 186.354492,222.929688 L186.354492,38.2714844 C186.354492,34.2968551 185.521981,30.5639823 183.856934,27.0727539 C182.191886,23.5815255 180.016615,20.9228607 177.331055,19.0966797 C175.075184,17.3779211 171.557153,16.2500027 166.776855,15.7128906 C161.996558,15.1757786 158.156265,14.7998058 155.255859,14.5849609 L155.255859,4.27246094 L214.069336,0.56640625 L216.325195,2.98339844 L216.325195,171.044922 C224.704143,162.665974 233.754346,153.669482 243.476074,144.055176 C253.197803,134.44087 261.388639,125.874061 268.048828,118.354492 C268.908207,117.38769 269.848139,116.125496 270.868652,114.567871 C271.889165,113.010246 272.399414,111.748052 272.399414,110.78125 C272.399414,107.880845 270.063012,105.732429 265.390137,104.335938 C260.717262,102.939446 256.232443,101.972659 251.935547,101.435547 L251.935547,91.1230469 L321.867188,91.1230469 L321.867188,101.113281 C312.843705,103.798842 304.86771,107.155742 297.938965,111.184082 C291.010219,115.212422 285.719745,118.837875 282.067383,122.060547 C279.489245,124.208995 275.836938,127.700171 271.110352,132.53418 C266.383765,137.368188 259.777386,143.706015 251.291016,151.547852 C260.099653,162.397515 270.009222,175.395432 281.02002,190.541992 C292.030817,205.688552 300.060522,216.645474 305.109375,223.413086 C309.835961,229.751008 314.079083,233.886709 317.838867,235.820312 C321.598652,237.753916 327.077112,238.935545 334.274414,239.365234 L334.274414,250 Z M497.501953,168.950195 C497.501953,180.122126 495.72951,191.105903 492.18457,201.901855 C488.639631,212.697808 483.590853,221.855431 477.038086,229.375 C469.62594,237.968793 461.032275,244.360331 451.256836,248.549805 C441.481396,252.739279 430.524475,254.833984 418.385742,254.833984 C408.288035,254.833984 398.673874,252.927265 389.542969,249.11377 C380.412064,245.300274 372.301793,239.741247 365.211914,232.436523 C358.229457,225.239222 352.670431,216.457571 348.534668,206.091309 C344.398905,195.725046 342.331055,184.096744 342.331055,171.206055 C342.331055,146.391477 349.555104,126.088946 364.003418,110.297852 C378.451732,94.506757 397.384649,86.6113281 420.802734,86.6113281 C443.039174,86.6113281 461.381275,94.103929 475.82959,109.089355 C490.277904,124.074782 497.501953,144.028196 497.501953,168.950195 Z M464.147461,169.272461 C464.147461,161.21578 463.341805,152.702682 461.730469,143.73291 C460.119133,134.763139 457.702165,127.163117 454.479492,120.932617 C451.041975,114.272428 446.530301,108.928243 440.944336,104.899902 C435.358371,100.871562 428.53715,98.8574219 420.480469,98.8574219 C412.208943,98.8574219 405.146025,100.898417 399.291504,104.980469 C393.436982,109.06252 388.683612,114.648402 385.03125,121.738281 C381.593733,128.291048 379.176765,135.756794 377.780273,144.135742 C376.383782,152.51469 375.685547,160.624961 375.685547,168.466797 C375.685547,178.779348 376.518058,188.312945 378.183105,197.067871 C379.848153,205.822798 382.506818,213.637661 386.15918,220.512695 C389.811542,227.38773 394.403781,232.785625 399.936035,236.706543 C405.468289,240.627461 412.316365,242.587891 420.480469,242.587891 C433.90827,242.587891 444.54293,236.088932 452.384766,223.09082 C460.226602,210.092708 464.147461,192.153435 464.147461,169.272461 Z M594.987305,250 L517.482422,250 L517.482422,239.365234 C519.953137,239.15039 522.584947,238.908693 525.37793,238.640137 C528.170912,238.371581 530.48046,237.968753 532.306641,237.431641 C535.314468,236.464839 537.570305,234.772961 539.074219,232.355957 C540.578133,229.938953 541.330078,226.796894 541.330078,222.929688 L541.330078,38.9160156 C541.330078,35.0488088 540.497567,31.4233568 538.83252,28.0395508 C537.167472,24.6557448 534.992201,21.99708 532.306641,20.0634766 C530.373037,18.7744076 526.828151,17.5927788 521.671875,16.5185547 C516.515599,15.4443306 512.379898,14.7998058 509.264648,14.5849609 L509.264648,4.27246094 L569.044922,0.56640625 L571.300781,2.98339844 L571.300781,220.996094 C571.300781,224.755878 571.999016,227.844226 573.395508,230.26123 C574.791999,232.678235 577.047836,234.531244 580.163086,235.820312 C582.526379,236.894537 584.862781,237.700193 587.172363,238.237305 C589.481945,238.774417 592.0869,239.15039 594.987305,239.365234 L594.987305,250 Z M765.46582,247.099609 C760.416967,248.92579 755.985859,250.402826 752.172363,251.530762 C748.358868,252.658697 744.03518,253.222656 739.201172,253.222656 C730.822224,253.222656 724.135279,251.262227 719.140137,247.341309 C714.144995,243.420391 710.949226,237.700233 709.552734,230.180664 L708.585938,230.180664 C701.603481,237.915078 694.11088,243.823222 686.10791,247.905273 C678.10494,251.987325 668.463924,254.02832 657.18457,254.02832 C645.260683,254.02832 635.458534,250.376013 627.777832,243.071289 C620.09713,235.766565 616.256836,226.206114 616.256836,214.389648 C616.256836,208.266571 617.116202,202.78811 618.834961,197.954102 C620.55372,193.120093 623.131819,188.769551 626.569336,184.902344 C629.254896,181.679671 632.799783,178.806165 637.204102,176.281738 C641.60842,173.757312 645.744121,171.743172 649.611328,170.239258 C654.445337,168.413077 664.247485,165.029322 679.018066,160.087891 C693.788648,155.14646 703.751927,151.279311 708.908203,148.486328 L708.908203,132.53418 C708.908203,131.137688 708.612796,128.452168 708.021973,124.477539 C707.431149,120.50291 706.168955,116.743182 704.235352,113.198242 C702.086903,109.223613 699.052266,105.759292 695.131348,102.805176 C691.21043,99.8510594 685.651403,98.3740234 678.454102,98.3740234 C673.512671,98.3740234 668.920431,99.2065346 664.677246,100.871582 C660.434061,102.536629 657.453134,104.282217 655.734375,106.108398 C655.734375,108.256847 656.244624,111.42576 657.265137,115.615234 C658.28565,119.804708 658.795898,123.671857 658.795898,127.216797 C658.795898,130.976581 657.104021,134.414047 653.720215,137.529297 C650.336409,140.644547 645.636749,142.202148 639.621094,142.202148 C634.249973,142.202148 630.302259,140.295429 627.777832,136.481934 C625.253405,132.668438 623.991211,128.398461 623.991211,123.671875 C623.991211,118.730444 625.736799,114.003929 629.228027,109.492188 C632.719256,104.980446 637.257785,100.952166 642.84375,97.4072266 C647.677759,94.399399 653.532192,91.848155 660.407227,89.753418 C667.282261,87.6586809 673.996061,86.6113281 680.548828,86.6113281 C689.572311,86.6113281 697.440884,87.2289977 704.154785,88.4643555 C710.868686,89.6997132 716.964816,92.358378 722.443359,96.4404297 C727.921902,100.415059 732.084458,105.812954 734.931152,112.634277 C737.777846,119.455601 739.201172,128.237251 739.201172,138.979492 C739.201172,154.340897 739.040041,167.956484 738.717773,179.82666 C738.395506,191.696837 738.234375,204.667898 738.234375,218.740234 C738.234375,222.929708 738.959465,226.259753 740.409668,228.730469 C741.859871,231.201184 744.088852,233.29589 747.09668,235.014648 C748.708016,235.98145 751.25926,236.518554 754.750488,236.625977 C758.241717,236.733399 761.813458,236.787109 765.46582,236.787109 L765.46582,247.099609 Z M709.230469,162.021484 C700.099564,164.707045 692.096714,167.338854 685.22168,169.916992 C678.346645,172.49513 671.955108,175.717754 666.046875,179.584961 C660.675754,183.237323 656.432633,187.56101 653.317383,192.556152 C650.202133,197.551295 648.644531,203.486294 648.644531,210.361328 C648.644531,219.277388 650.980934,225.830057 655.653809,230.019531 C660.326684,234.209005 666.261683,236.303711 673.458984,236.303711 C681.085976,236.303711 687.799776,234.450702 693.600586,230.744629 C699.401396,227.038556 704.289043,222.661158 708.263672,217.612305 L709.230469,162.021484 Z M955.280273,247.099609 L899.850586,250.644531 L897.433594,248.388672 L897.433594,233.564453 L896.144531,233.242188 C890.558566,239.472687 883.656779,244.575175 875.438965,248.549805 C867.22115,252.524434 858.761762,254.511719 850.060547,254.511719 C841.037064,254.511719 832.309124,252.497579 823.876465,248.469238 C815.443805,244.440898 808.112336,238.774451 801.881836,231.469727 C795.543914,224.05758 790.521991,215.141654 786.815918,204.72168 C783.109845,194.301706 781.256836,182.80768 781.256836,170.239258 C781.256836,158.74506 783.244121,147.841848 787.21875,137.529297 C791.193379,127.216745 796.67184,118.193398 803.654297,110.458984 C810.207064,103.261683 818.236769,97.5146699 827.743652,93.2177734 C837.250536,88.920877 846.945263,86.7724609 856.828125,86.7724609 C864.240271,86.7724609 871.518031,87.7123929 878.661621,89.5922852 C885.805211,91.4721774 891.955052,93.8622902 897.111328,96.7626953 L897.111328,41.4941406 C897.111328,36.9823993 896.359383,32.8735537 894.855469,29.1674805 C893.351555,25.4614073 891.256849,22.6416112 888.571289,20.7080078 C885.563462,18.666982 881.508326,17.189946 876.405762,16.2768555 C871.303197,15.363765 865.797881,14.692385 859.889648,14.2626953 L859.889648,4.27246094 L924.826172,0.56640625 L927.243164,2.98339844 L927.243164,217.290039 C927.243164,221.049823 927.968254,224.245592 929.418457,226.877441 C930.86866,229.509291 932.99022,231.738272 935.783203,233.564453 C937.824229,234.853522 940.778301,235.659178 944.645508,235.981445 C948.512715,236.303713 952.057601,236.518554 955.280273,236.625977 L955.280273,247.099609 Z M897.111328,219.223633 L897.111328,126.25 C896.251949,123.457017 894.855478,120.449235 892.921875,117.226562 C890.988272,114.00389 888.571304,111.049818 885.670898,108.364258 C882.555648,105.678698 878.903341,103.449716 874.713867,101.677246 C870.524393,99.9047763 865.636747,99.0185547 860.050781,99.0185547 C853.605437,99.0185547 847.670437,100.683577 842.245605,104.013672 C836.820774,107.343767 832.013693,112.123992 827.824219,118.354492 C823.84959,124.370147 820.707531,132.023879 818.397949,141.315918 C816.088367,150.607957 814.933594,160.893498 814.933594,172.172852 C814.933594,181.196334 815.79296,189.38717 817.511719,196.745605 C819.230477,204.104041 822.130839,210.952117 826.212891,217.290039 C829.972675,223.305694 834.779756,228.13963 840.634277,231.791992 C846.488799,235.444354 853.444296,237.270508 861.500977,237.270508 C870.09477,237.270508 877.211398,235.390644 882.851074,231.630859 C888.490751,227.871075 893.244121,223.735374 897.111328,219.223633 Z M1111.90137,212.617188 C1105.24118,225.293032 1096.32525,235.390587 1085.15332,242.910156 C1073.98139,250.429725 1061.1446,254.189453 1046.64258,254.189453 C1033.85931,254.189453 1022.66069,251.933616 1013.04639,247.421875 C1003.43208,242.910134 995.509797,236.787148 989.279297,229.052734 C983.048797,221.318321 978.402847,212.294973 975.341309,201.982422 C972.27977,191.66987 970.749023,180.766659 970.749023,169.272461 C970.749023,158.959909 972.387191,148.835499 975.663574,138.898926 C978.939958,128.962353 983.747039,120.019571 990.084961,112.070312 C996.208038,104.443321 1003.80806,98.2934804 1012.88525,93.6206055 C1021.96245,88.9477305 1032.14057,86.6113281 1043.41992,86.6113281 C1055.02154,86.6113281 1064.95797,88.4374817 1073.22949,92.0898438 C1081.50102,95.7422058 1088.21482,100.737273 1093.37109,107.075195 C1098.31252,113.09085 1101.99169,120.180623 1104.40869,128.344727 C1106.8257,136.50883 1108.03418,145.371046 1108.03418,154.931641 L1108.03418,165.566406 L1002.81445,165.566406 C1002.81445,175.98638 1003.8081,185.439411 1005.79541,193.925781 C1007.78272,202.412152 1010.92478,209.877897 1015.22168,216.323242 C1019.41115,222.553742 1024.88961,227.468244 1031.65723,231.066895 C1038.42484,234.665545 1046.4814,236.464844 1055.82715,236.464844 C1065.38774,236.464844 1073.63229,234.235862 1080.56104,229.777832 C1087.48978,225.319802 1094.17673,217.290097 1100.62207,205.688477 L1111.90137,212.617188 Z M1076.29102,152.03125 C1076.29102,146.015595 1075.78077,139.570347 1074.76025,132.695312 C1073.73974,125.820278 1072.10157,120.073265 1069.8457,115.454102 C1067.37499,110.512671 1063.99123,106.484391 1059.69434,103.369141 C1055.39744,100.253891 1049.86527,98.6962891 1043.09766,98.6962891 C1031.8183,98.6962891 1022.44584,103.395949 1014.97998,112.79541 C1007.51412,122.194871 1003.45899,135.273354 1002.81445,152.03125 L1076.29102,152.03125 Z" id="akolade." fill="#000000"></path>
        <path d="M1185.53906,231.469727 C1185.53906,237.485382 1183.36379,242.614725 1179.01318,246.85791 C1174.66258,251.101095 1169.47952,253.222656 1163.46387,253.222656 C1157.44821,253.222656 1152.26516,251.101095 1147.91455,246.85791 C1143.56394,242.614725 1141.38867,237.485382 1141.38867,231.469727 C1141.38867,225.454071 1143.56394,220.271018 1147.91455,215.92041 C1152.26516,211.569802 1157.44821,209.394531 1163.46387,209.394531 C1169.47952,209.394531 1174.66258,211.569802 1179.01318,215.92041 C1183.36379,220.271018 1185.53906,225.454071 1185.53906,231.469727 Z" id="Path" fill="#EC0000"></path>
    </g>
</svg>