<?xml version="1.0" encoding="UTF-8"?>
<svg width="944px" height="212px" viewBox="0 0 944 212" version="1.1" xmlns="http://www.w3.org/2000/svg" xmlns:xlink="http://www.w3.org/1999/xlink">
    <!-- Generator: Sketch 51.2 (57519) - http://www.bohemiancoding.com/sketch -->
    <title>Logo_akolade</title>
    <desc>Created with Sketch.</desc>
    <defs></defs>
    <g id="Logo_akolade" stroke="none" stroke-width="1" fill="none" fill-rule="evenodd">
        <g id="Group">
            <polygon id="Line-2" fill="#185DD5" points="28.1957494 166 55.5353117 212 107 212 77.2662532 166"></polygon>
            <polygon id="Line-2" fill="#1B7CFF" points="28.5 166 57 212 0 212"></polygon>
            <polygon id="Line-2" fill="#185DD5" points="161 130 130.430846 83 82.4964746 83 53 130"></polygon>
            <polygon id="Line-2" fill="#1B7CFF" points="104.053572 212 165 212 82.0560498 83 52 129.834309"></polygon>
            <polygon id="Line-3" fill="#1B7CFF" points="213.576561 212 276 212 134.437075 0 104 47.3416558"></polygon>
        </g>
        <g id="Group-2" transform="translate(293.000000, 59.000000)" fill="#2478FF">
            <path d="M27.2813853,152.52381 C19.0504639,152.52381 12.4459123,150.101034 7.46753247,145.255411 C2.4891526,140.409788 0,133.805237 0,125.441558 L0,115.883117 C0,107.386682 2.95379442,100.616187 8.86147186,95.5714286 C14.7691493,90.5266703 23.5641552,88.004329 35.2467532,88.004329 L62.5281385,88.004329 L62.5281385,80.6363636 C62.5281385,77.0519301 61.9307419,74.2308905 60.7359307,72.1731602 C59.5411196,70.1154298 57.2842879,68.5887496 53.965368,67.5930736 C50.6464481,66.5973976 45.7345203,66.0995671 39.2294372,66.0995671 L7.16883117,66.0995671 L7.16883117,48.974026 C20.311754,44.9913221 34.5828956,43 49.982684,43 C64.0549044,43 74.5757227,45.6550961 81.5454545,50.965368 C88.5151864,56.2756398 92,65.5020988 92,78.6450216 L92,151.329004 L68.7012987,151.329004 L63.9220779,139.978355 C62.4617532,141.43868 59.8730345,143.164492 56.1558442,145.155844 C52.4386539,147.147196 48.0245566,148.873009 42.9134199,150.333333 C37.8022832,151.793658 32.5916571,152.52381 27.2813853,152.52381 Z M42.6147186,132.012987 C45.6681249,132.012987 49.4516369,131.316024 53.965368,129.922078 C58.479099,128.528132 61.3333274,127.499282 62.5281385,126.835498 L62.5281385,101.943723 L44.6060606,103.138528 C34.5165441,103.935069 29.4718615,108.315977 29.4718615,116.281385 L29.4718615,120.662338 C29.4718615,128.229475 33.85277,132.012987 42.6147186,132.012987 Z" id="a"></path>
            <polygon id="k" points="100 0 129.6 0 129.6 82.4 130.2 82.4 153.8 45.2 183.8 45.2 152.2 95.8 187 152.6 157 152.6 129.8 109 129.6 152.6 100 152.6"></polygon>
            <path d="M239.900609,153 C227.841049,153 218.299562,151.315471 211.275862,147.946364 C204.252162,144.577256 199.116987,138.962161 195.870183,131.100909 C192.623378,123.239658 191,112.372797 191,98.5 C191,84.0987159 192.623378,72.9676151 195.870183,65.1063636 C199.116987,57.2451122 204.252162,51.7621367 211.275862,48.6572727 C218.299562,45.5524087 227.841049,44 239.900609,44 C252.092691,44 261.700438,45.6184687 268.724138,48.8554545 C275.747838,52.0924404 280.883013,57.6414758 284.129817,65.5027273 C287.376622,73.3639787 289,84.3629596 289,98.5 C289,112.63704 287.409752,123.636021 284.229209,131.497273 C281.048666,139.358524 275.946621,144.90756 268.922921,148.144545 C261.899221,151.381531 252.225214,153 239.900609,153 Z M239.900609,129.614545 C245.068991,129.614545 248.978351,128.920916 251.628803,127.533636 C254.279256,126.146357 256.267066,123.239719 257.592292,118.813636 C258.917518,114.387554 259.580122,107.616409 259.580122,98.5 C259.580122,89.3835908 258.917518,82.6124464 257.592292,78.1863636 C256.267066,73.7602809 254.279256,70.8536433 251.628803,69.4663636 C248.978351,68.079084 245.068991,67.3854545 239.900609,67.3854545 C234.864748,67.3854545 231.021649,68.079084 228.371197,69.4663636 C225.720744,70.8536433 223.732934,73.7602809 222.407708,78.1863636 C221.082482,82.6124464 220.419878,89.3835908 220.419878,98.5 C220.419878,107.616409 221.082482,114.387554 222.407708,118.813636 C223.732934,123.239719 225.720744,126.146357 228.371197,127.533636 C231.021649,128.920916 234.864748,129.614545 239.900609,129.614545 Z" id="o"></path>
            <path d="M330.6,153 C319.26661,153 310.833361,150.166695 305.3,144.5 C299.766639,138.833305 297,130.00006 297,118 L297,0 L326.6,0 L326.6,113.6 C326.6,119.333362 327.466658,123.433321 329.2,125.9 C330.933342,128.366679 333.79998,129.866664 337.8,130.4 L346,131.6 L346,153 L330.6,153 Z" id="l"></path>
            <path d="M492.163934,153 C479.310045,153 469.736029,148.821888 463.441598,140.46554 C457.147168,132.109191 454,118.447429 454,99.479844 C454,85.9505175 455.225739,75.1404826 457.677254,67.0494148 C460.128769,58.9583471 464.26978,52.9896161 470.10041,49.1430429 C475.93104,45.2964697 483.948036,43.373212 494.151639,43.373212 C502.897585,43.373212 511.97468,45.0311928 521.383197,48.3472042 L521.383197,0 L551,0 L551,151.806242 L526.153689,151.806242 L521.383197,141.659298 C517.672796,144.842669 513.167376,147.528598 507.866803,149.717165 C502.56623,151.905733 497.331993,153 492.163934,153 Z M502.5,129.323797 C508.860688,129.323797 515.155024,127.33422 521.383197,123.355007 L521.383197,69.6358908 C517.937824,68.3094862 514.856912,67.2815381 512.140369,66.5520156 C509.423825,65.8224931 506.607938,65.4577373 503.692623,65.4577373 C498.524564,65.4577373 494.516066,66.353047 491.667008,68.1436931 C488.81795,69.9343393 486.730881,73.1839817 485.405738,77.8927178 C484.080594,82.601454 483.418033,89.3328561 483.418033,98.0871261 C483.418033,106.443475 484.047466,112.843281 485.306352,117.286736 C486.565239,121.730191 488.552924,124.847195 491.269467,126.637841 C493.986011,128.428487 497.729484,129.323797 502.5,129.323797 Z" id="d"></path>
            <path d="M607.4,153 C595.266606,153 585.733368,151.400016 578.8,148.2 C571.866632,144.999984 566.833349,139.466706 563.7,131.6 C560.566651,123.733294 559,112.666738 559,98.4 C559,83.73326 560.466652,72.433373 563.4,64.5 C566.333348,56.566627 571.166633,51.000016 577.9,47.8 C584.633367,44.599984 594.133272,43 606.4,43 C617.333388,43 625.933302,44.066656 632.2,46.2 C638.466698,48.333344 643.033319,52.06664 645.9,57.4 C648.766681,62.73336 650.2,70.266618 650.2,80 C650.2,90.400052 647.233363,97.799978 641.3,102.2 C635.366637,106.600022 626.73339,108.8 615.4,108.8 L588.4,108.8 C588.666668,114.533362 589.533326,118.966651 591,122.1 C592.466674,125.233349 595.066648,127.499993 598.8,128.9 C602.533352,130.300007 607.999964,131 615.2,131 L646.6,131 L646.6,148.4 C639.533298,149.866674 633.133362,150.999996 627.4,151.8 C621.666638,152.600004 615.000038,153 607.4,153 Z M612.4,91.2 C616.533354,91.2 619.499991,90.366675 621.3,88.7 C623.100009,87.033325 624,84.20002 624,80.2 C624,74.333304 622.66668,70.233345 620,67.9 C617.33332,65.566655 612.800032,64.4 606.4,64.4 C601.73331,64.4 598.100013,65.166659 595.5,66.7 C592.899987,68.233341 591.000006,70.933314 589.8,74.8 C588.599994,78.666686 588,84.133298 588,91.2 L612.4,91.2 Z" id="e"></path>
            <path d="M381.281385,153 C373.050464,153 366.445912,150.566691 361.467532,145.7 C356.489153,140.833309 354,134.200042 354,125.8 L354,116.2 C354,107.666624 356.953794,100.866692 362.861472,95.8 C368.769149,90.733308 377.564155,88.2 389.246753,88.2 L416.528139,88.2 L416.528139,80.8 C416.528139,77.199982 415.930742,74.366677 414.735931,72.3 C413.54112,70.233323 411.284288,68.700005 407.965368,67.7 C404.646448,66.699995 399.73452,66.2 393.229437,66.2 L361.168831,66.2 L361.168831,49 C374.311754,44.99998 388.582896,43 403.982684,43 C418.054904,43 428.575723,45.66664 435.545455,51 C442.515186,56.33336 446,65.599934 446,78.8 L446,151.8 L422.701299,151.8 L417.922078,140.4 C416.461753,141.866674 413.873034,143.59999 410.155844,145.6 C406.438654,147.60001 402.024557,149.333326 396.91342,150.8 C391.802283,152.266674 386.591657,153 381.281385,153 Z M396.614719,132.4 C399.668125,132.4 403.451637,131.700007 407.965368,130.3 C412.479099,128.899993 415.333327,127.86667 416.528139,127.2 L416.528139,102.2 L398.606061,103.4 C388.516544,104.200004 383.471861,108.59996 383.471861,116.6 L383.471861,121 C383.471861,128.600038 387.85277,132.4 396.614719,132.4 Z" id="a"></path>
        </g>
    </g>
</svg>