<svg xmlns="http://www.w3.org/2000/svg" width="512" height="512" viewBox="0 0 60.731 60.731"><path d="M2.804 57.284c1.739-.933 3.466-1.896 5.248-2.742 1.729-.827 3.516-1.535 5.284-2.283 1.663-.697 3.345-1.359 4.997-2.078a1.45 1.45 0 0 0 .687-.714c.368-.921.682-1.879.974-2.833.221-.721.364-1.435 1.293-1.626.233-.048.521-.449.556-.724.189-1.387.332-2.782.428-4.184.023-.296-.131-.68-.334-.907-1.224-1.369-1.897-2.947-2.18-4.763-.143-.91-.649-1.752-.914-2.648a62.928 62.928 0 0 1-.914-3.642c-.1-.439-.042-.915-.114-1.364-.107-.656-.087-1.164.702-1.416.218-.07.4-.591.407-.911.04-1.948.014-3.898.025-5.847.01-1.195-.002-2.396.084-3.59.168-2.286 1.509-3.898 3.191-5.283 2.455-2.026 5.396-2.969 8.418-3.687 1.585-.372 3.202-.6 4.817-.857.429-.07.876-.012 1.316-.012.07.113.144.223.219.334-.34.243-.714.448-1.006.738-.657.657-.593 1.119.112 1.711 1.455 1.235 2.915 2.468 4.331 3.746 1.246 1.12 1.731 2.589 1.733 4.238.003 2.838.005 5.675.003 8.516-.003.582-.044 1.154.678 1.412.152.054.314.373.301.556a192.61 192.61 0 0 1-.434 4.354.333.333 0 0 1-.05.162c-1.305 1.904-1.474 4.242-2.404 6.288-.039.078-.055.169-.114.233-1.729 2.039-1.19 4.488-1.223 6.829-.005.237.164.611.355.688.71.312.881.92 1.077 1.561.308 1.011.613 2.025 1.045 2.983.157.356.634.655 1.028.804 5.322 2.043 10.591 4.208 15.671 6.811a10.028 10.028 0 0 1 2.63 1.926V1.528H-.004v57.675c.822-.76 1.781-1.369 2.808-1.919z" fill="#f5f9fc"/></svg>