<svg enable-background="new 0 0 145 145" viewBox="0 0 145 145" xmlns="http://www.w3.org/2000/svg"><path d="m0 0h145v145h-145z" fill="#f2a88f"/><g fill="#3c2a20"><ellipse cx="71.516" cy="26.72" rx="5.26" ry="5.598"/><ellipse cx="79.144" cy="27.765" rx="5.261" ry="5.598"/><ellipse cx="93.707" cy="33.363" rx="5.262" ry="5.599"/><ellipse cx="99.661" cy="42.892" rx="5.261" ry="5.598"/><ellipse cx="102.379" cy="50.705" rx="5.26" ry="5.599"/><ellipse cx="62.617" cy="26.842" rx="4.449" ry="4.734"/><ellipse cx="103.417" cy="58.759" rx="4.448" ry="4.735"/><ellipse cx="103.417" cy="67.061" rx="4.448" ry="4.735"/><ellipse cx="98.967" cy="72.78" rx="4.449" ry="4.735"/><ellipse cx="42.103" cy="63.494" rx="4.448" ry="4.734"/><ellipse cx="43.604" cy="71.796" rx="4.45" ry="4.735"/><ellipse cx="45.916" cy="75.116" rx="4.449" ry="4.735"/><ellipse cx="87.409" cy="26.903" rx="4.45" ry="4.735"/><ellipse cx="97.118" cy="40.433" rx="4.45" ry="4.735"/><ellipse cx="56.434" cy="27.765" rx="4.393" ry="4.674"/><ellipse cx="54.238" cy="31.577" rx="4.393" ry="4.674"/><ellipse cx="44.642" cy="39.821" rx="4.966" ry="5.285"/><ellipse cx="42.103" cy="47.566" rx="4.394" ry="4.674"/><ellipse cx="41.523" cy="56.051" rx="4.393" ry="4.674"/><ellipse cx="47.996" cy="32.439" rx="4.393" ry="4.674"/><path d="m49.189 79.3 4.299 1.472s-4.58-12.17-2.488-18.446c2.09-6.275 5.738-17.438 11.166-16.331 5.43 1.107 13.742 2.615 20.104-.076 3.477-1.031 10.518 4.503 9.838 11.053s4.354 14.083-.508 22.323c5.088-1.23 10.01-3.32 10.01-3.32l1.807-17.216-1.807-13.579-10.69-17.415-14.615-.862-14.674-.183-10.631 4.857-5.654 10.268-3.281 13.099 2.828 14.574z"/><path d="m49.189 79.3 4.299 1.472s-4.58-12.17-2.488-18.446c2.09-6.275 5.738-17.438 11.166-16.331 5.43 1.107 13.742 2.615 20.104-.076 3.477-1.031 10.518 4.503 9.838 11.053s4.354 14.083-.508 22.323c5.088-1.23 10.01-3.32 10.01-3.32l1.807-17.216-1.807-13.579-10.69-17.415-14.615-.862-14.674-.183-10.631 4.857-5.654 10.268-3.281 13.099 2.828 14.574z"/></g><path d="m109.375 115.394c-4.965-9.396-36.875-15.291-36.875-15.291s-31.91 5.896-36.875 15.291c-3.668 13.039-6.736 29.606-6.736 29.606h43.611 43.611s-2.072-17.764-6.736-29.606z" fill="#f1c9a5"/><path d="m72.5 100.103s31.91 5.896 36.875 15.291c4.664 11.842 6.736 29.606 6.736 29.606h-43.611z" fill="#e4b692"/><path d="m63.813 81.001h17.373v29.077h-17.373z" fill="#f1c9a5"/><path d="m72.5 81.001h8.686v29.077h-8.686z" fill="#e4b692"/><path d="m63.813 94.475c1.563 4.485 7.869 7.056 12.5 7.056 1.674 0 3.305-.28 4.873-.794v-19.736h-17.373z" fill="#ddac8c" opacity=".1"/><path d="m109.375 115.394c-2.9-5.487-14.98-9.777-24.537-12.398-.373 6.5-5.746 11.658-12.338 11.658-6.594 0-11.967-5.159-12.34-11.658-9.555 2.622-21.637 6.912-24.535 12.398-3.668 13.039-6.736 29.606-6.736 29.606h43.611 43.611s-2.072-17.764-6.736-29.606z" fill="#fff"/><path d="m94.838 62.653c0-18.162-10.002-28.489-22.338-28.489s-22.338 10.328-22.338 28.489c0 7.609 2.328 24.455 6.301 27.889 2.728 2.425 11.635 6.577 15.992 6.577.014 0 .031-.002.045-.002.016 0 .031.002.043.002h.002c4.357 0 13.264-4.152 15.992-6.577 4.131-4.364 6.301-20.905 6.301-27.889z" fill="#f1c9a5"/><path d="m94.838 62.653c0-18.162-10.002-28.489-22.338-28.489s-22.338 10.328-22.338 28.489c0 7.609 2.328 24.455 6.301 27.889 2.728 2.425 11.635 6.577 15.992 6.577.014 0 .031-.002.045-.002.016 0 .031.002.043.002h.002c4.357 0 13.264-4.152 15.992-6.577 4.131-4.364 6.301-20.905 6.301-27.889z" fill="#f1c9a5"/><path d="m72.5 97.116c.016 0 .031.002.043.002h.002c4.357 0 13.264-4.152 15.992-6.577 4.131-4.364 6.301-20.905 6.301-27.889 0-18.162-10.002-28.489-22.338-28.489z" fill="#e4b692"/><path d="m91.438 75.247c-4.049-.424-6.783-4.787-6.098-9.74.676-4.957 4.512-8.637 8.562-8.215 4.047.421 6.777 4.782 6.094 9.739-.68 4.957-4.51 8.635-8.558 8.216z" fill="#e4b692"/><path d="m45.16 67.031c-.684-4.957 2.047-9.318 6.092-9.739 4.053-.422 7.887 3.258 8.566 8.215.684 4.953-2.053 9.316-6.1 9.74-4.048.419-7.878-3.259-8.558-8.216z" fill="#f1c9a5"/><path d="m93.975 59.211c-.01-.303-.041-.604-.059-.906-.01-.136-.076-.222-.207-.256-.096-.023-.186-.05-.279-.063-1.338-.21-2.682-.415-4.033-.511-1.082-.074-2.162-.123-3.244-.17-2.084-.093-4.166-.048-6.238.214-1.264.161-2.519.389-3.734.782-.617.201-1.223.432-1.838.627-.963.305-1.949.442-2.947.255-.598-.112-1.191-.284-1.773-.471-1.051-.342-2.105-.677-3.195-.879-2.123-.391-4.264-.572-6.26-.551-1.625.003-3.086.059-4.541.233-1.191.142-2.383.302-3.576.465-.252.034-.5.108-.746.174-.133.034-.221.123-.225.27-.023.704-.049 1.407-.066 2.112-.002.107.023.213.039.318.014.09.063.153.148.189.092.04.188.079.266.136.393.272.58.685.728 1.114.108.305.178.624.264.936.057.194.131.386.174.582.205.917.398 1.84.609 2.757.203.875.465 1.731.883 2.531.467.894 1.133 1.58 2.08 1.974.572.238 1.168.39 1.779.486 1.092.173 2.193.196 3.299.115 1.117-.08 2.219-.25 3.295-.576.799-.24 1.553-.578 2.193-1.123.977-.833 1.764-1.823 2.367-2.959.607-1.131 1.027-2.338 1.408-3.56.111-.352.215-.704.342-1.049.188-.508.549-.822 1.092-.906.172-.025.352-.033.525-.022.406.022.797.109 1.068.448.117.148.227.312.303.483.148.336.287.677.398 1.027.478 1.51 1.109 2.95 1.91 4.317.664 1.135 1.541 2.053 2.701 2.687.822.447 1.697.734 2.613.911 1.377.267 2.766.332 4.162.272.844-.037 1.678-.144 2.49-.388.832-.249 1.564-.655 2.113-1.352.356-.448.617-.947.834-1.475.453-1.107.746-2.266 1.01-3.432.129-.57.264-1.141.404-1.709.072-.295.164-.589.244-.883.078-.276.145-.556.318-.794.174-.239.355-.476.646-.578.129-.048.195-.137.221-.257.021-.093.045-.188.045-.282.001-.421.001-.844-.01-1.263zm-1.809.427c-.457 0-.826-.091-.826-.202 0-.113.369-.205.826-.205.451 0 .82.092.82.205 0 .111-.369.202-.82.202z"/><path d="m101.609 45.18-10.689-17.415-14.615-.862-14.674-.183-10.631 4.857-5.654 10.268-3.281 13.099 2.828 14.574 1.023 10.333 8.322 7.094s-1.664-5.73-2.768-11.881c-3.135-.833-5.76-4.011-6.311-8.033-.684-4.957 2.047-9.318 6.092-9.739.5-.052.994-.041 1.482.027.424-5.942 3.143-13.124 9.432-11.323 5.484 1.57 13.742 2.615 20.104-.076 5.139-2.393 10.518 4.503 9.838 11.053-.014.128-.014.278-.025.412.598-.115 1.205-.156 1.82-.092 4.047.421 6.777 4.782 6.094 9.739-.594 4.336-3.6 7.693-7.053 8.185-.066 4.093-.66 8.05-2.475 11.124 5.09-1.23 11.141-10.365 11.141-10.365l1.807-17.216z" fill="#3c2a20"/></svg>