<svg enable-background="new 0 0 145 145" viewBox="0 0 145 145" xmlns="http://www.w3.org/2000/svg"><path d="m0 0h145v145h-145z" fill="#876450"/><path d="m109.374 115.394c-4.963-9.396-36.874-15.292-36.874-15.292s-30.675 5.554-36.508 15.554c-3.669 13.039-6.49 29.281-6.49 29.281l42.998.063h42.752s-1.213-17.764-5.878-29.606z" fill="#f1c9a5"/><path d="m72.5 100.102s31.911 5.896 36.874 15.292c4.665 11.842 6.128 29.606 6.128 29.606h-43.002z" fill="#e4b692"/><path d="m63.813 81h17.375v29.077h-17.375z" fill="#f1c9a5"/><path d="m72.5 81h8.688v29.077h-8.688z" fill="#e4b692"/><path d="m63.813 94.474c1.563 4.485 7.869 7.057 12.5 7.057 1.676 0 3.306-.281 4.875-.795v-19.736h-17.375z" fill="#ddac8c" opacity=".1"/><path d="m94.838 62.653c0-18.162-10.001-28.489-22.338-28.489-12.336 0-22.338 10.327-22.338 28.489 0 24.429 10.002 32.886 22.338 32.886 12.337 0 22.338-9.476 22.338-32.886z" fill="#f1c9a5"/><path d="m91.438 75.246c-4.049-.424-6.783-4.787-6.098-9.739.678-4.957 4.513-8.638 8.564-8.216 4.047.422 6.776 4.783 6.093 9.739-.679 4.958-4.51 8.635-8.559 8.216z" fill="#e4b692"/><path d="m45.161 67.031c-.684-4.957 2.046-9.317 6.091-9.739 4.054-.422 7.889 3.259 8.567 8.216.684 4.953-2.052 9.315-6.1 9.739-4.048.418-7.879-3.259-8.558-8.216z" fill="#f1c9a5"/><path d="m94.838 62.653c0-18.162-10.001-28.489-22.338-28.489v61.375c12.337 0 22.338-9.476 22.338-32.886z" fill="#e4b692"/><path d="m92.594 77.874c-1.201 3.378-3.234 7.44-6.907 7.44-4.592 0-7.875-3.731-13.142-3.731-.015 0-.029.002-.044.002-.016 0-.03-.002-.046-.002-5.266 0-8.548 3.731-13.14 3.731-3.674 0-5.705-4.062-6.907-7.44l-1.04-6.508v7.788s1.745 9.171 5.096 11.387c2.728 2.424 11.635 6.576 15.99 6.576h.001c.015 0 .03-.002.046-.002.015 0 .03.002.044.002h.002c4.356 0 13.263-4.152 15.99-6.576 3.351-2.216 5.096-11.387 5.096-11.387v-7.788z" fill="#0f0f0d"/><path d="m109.374 115.394c-2.899-5.487-14.979-9.777-24.534-12.399-.374 6.499-5.747 11.658-12.34 11.658s-11.966-5.159-12.34-11.658c-9.556 2.622-21.635 6.912-24.534 12.399-3.669 13.039-6.737 29.606-6.737 29.606h43.611 43.611s-2.072-17.764-6.737-29.606z" fill="#b0b0b0"/><path d="m29.821 140.213c-.59 2.938-.933 4.787-.933 4.787h43.612 43.611s-.218-1.868-.671-4.787z" fill="#1b4e3b"/><path d="m30.81 135.427h83.827c-.273-1.504-.586-3.117-.938-4.787h-81.85c-.375 1.682-.723 3.291-1.039 4.787z" fill="#1b4e3b"/><path d="m32.947 125.854h79.657c-.397-1.603-.83-3.211-1.298-4.787h-77.19c-.403 1.597-.795 3.202-1.169 4.787z" fill="#1b4e3b"/><path d="m72.5 114.653c-3.169 0-6.049-1.2-8.234-3.16h-24.902c-1.701 1.22-3.01 2.522-3.738 3.901-.082.293-.164.59-.246.886h74.332c-.111-.298-.224-.595-.338-.886-.728-1.378-2.037-2.681-3.738-3.901h-24.902c-2.185 1.961-5.065 3.16-8.234 3.16z" fill="#1b4e3b"/><path d="m48.757 106.706h12.209c-.447-1.164-.731-2.409-.806-3.711-3.651 1.001-7.668 2.249-11.403 3.711z" fill="#1b4e3b"/><path d="m84.034 106.706h12.209c-3.735-1.462-7.752-2.71-11.403-3.711-.075 1.303-.359 2.547-.806 3.711z" fill="#1b4e3b"/><path d="m56.527 104.042c1.21 7.744 7.89 13.675 15.973 13.675s14.763-5.932 15.974-13.675c-1.235-.374-2.454-.723-3.634-1.047-.374 6.499-5.747 11.658-12.34 11.658s-11.966-5.159-12.34-11.658c-1.18.324-2.398.673-3.633 1.047z" fill="#1b4e3b"/><path d="m92.912 59.437s-7.016-10.749-19.733-10.749-21.926 10.749-21.926 10.749c-3.29-1.897-3.726-30.139 22.583-30.139 22.397 0 22.585 26.345 19.076 30.139z" fill="#e44049"/><g fill="#ebdc5f"><path d="m68.578 36.744-1.843-.011-1.052 1.513-.561-1.756-1.763-.534 1.496-1.074-.037-1.842 1.485 1.09 1.74-.605-.578 1.75z"/><path d="m78.506 37.275-1.364-.901-1.517.612.436-1.576-1.05-1.254 1.634-.072.866-1.386.573 1.532 1.588.395-1.28 1.019z"/><path d="m85.597 44.367-1.786-.431-1.37 1.229-.143-1.833-1.592-.922 1.699-.703.386-1.798 1.193 1.399 1.829-.189-.962 1.568z"/><path d="m73.896 43.304-.996-.69-1.133.43.347-1.161-.76-.945 1.213-.028.663-1.014.402 1.144 1.17.318-.964.735z"/><path d="m57.763 48.267-2.261-.328-1.554 1.678-.385-2.253-2.076-.958 2.021-1.063.27-2.27 1.637 1.594 2.243-.445-1.011 2.05z"/><path d="m63.359 45.165-.234-.475-.525-.077.379-.369-.088-.522.468.246.468-.246-.089.522.38.369-.525.077z"/><path d="m61.31 39.049-1.398.094-.714 1.205-.522-1.299-1.366-.307 1.074-.897-.131-1.395 1.186.744 1.287-.555-.342 1.359z"/><path d="m91.803 52.345-1.33-1.364-1.878.322.886-1.686-.885-1.686 1.877.322 1.33-1.364.274 1.886 1.707.842-1.707.843z"/><path d="m87.37 37.275.18.63.621.21-.544.364-.007.656-.515-.404-.626.195.225-.615-.379-.534.654.024z"/></g></svg>