<svg xmlns="http://www.w3.org/2000/svg" viewBox="0 0 145 145"><path fill="#E7C295" d="M0 0H145V145H0z"/><path d="M59.757 33.977s-12.741-1.952-17.64 10.583c-3.221 8.246 1.008 33.769-2.016 42.588 4.032-8.063 5.04-10.583 5.04-10.583S44.134 90.423 41.865 93.7c5.796-12.349 5.796-9.073 5.796-9.073s.001 10.083-2.016 14.869c4.536-7.561 5.544-12.349 5.544-12.349s1.511 3.024-1.261 9.828c2.269-3.275 4.033-8.568 4.033-8.568s.377 6.554 1.259 9.452c.505-4.286 1.765-5.545 1.765-5.545s2.142 3.652 2.771 6.551c.631-4.158 0-7.055 0-7.055l4.056 7.227 14.341-1.054 1.764-4.788s1.513 2.773 0 5.797c2.017-1.89 3.15-4.159 3.15-6.175.378 5.545 0 9.199 0 9.199 3.149-5.292 3.402-10.583 3.402-10.583s1.133 8.188.881 8.565c-.252.378 2.521-4.032 2.143-9.827 1.26 5.544 2.141 6.68.882 9.577 3.779-5.671 2.394-10.584 2.394-10.584s2.27 2.897 2.017 6.047c2.393-6.174 1.008-9.827 1.008-9.827s3.275 2.395 2.52 6.804c2.268-5.293.113-10.711.113-10.711s2.028 2.269 5.179 2.521c-2.394-3.149-1.89-7.686-1.89-7.686s2.268.63 2.394 3.528c.757-3.403 2.898-11.719 0-16.255 3.402 1.764 4.158 2.521 4.158 2.521s-2.394-6.048-5.544-8.316c-1.512-6.174-3.401-12.474-7.182-14.112 4.788 1.639 7.938 2.521 9.828 1.009-3.276-.252-7.434-3.149-9.324-6.553 4.788.379 6.804 2.269 6.804 2.269s-4.409-5.796-9.701-6.426c-5.544-5.796-13.042-10.06-18.964-8.422-5.923 1.636-10.648 1.996-14.428 8.422z" fill="#5A3017"/><path d="M109.374 115.395c-4.963-9.396-36.874-15.292-36.874-15.292s-31.911 5.896-36.874 15.292C31.957 128.433 28.889 145 28.889 145h87.222s-2.072-17.764-6.737-29.605z" fill="#F1C9A5"/><path d="M72.5 100.103s31.911 5.896 36.874 15.292c4.665 11.842 6.737 29.605 6.737 29.605H72.5v-44.897z" fill="#E4B692"/><path fill="#F1C9A5" d="M63.813 81.001H81.188V110.078H63.813z"/><path fill="#E4B692" d="M72.5 81.001H81.188V110.078H72.5z"/><path d="M63.813 94.475c1.563 4.485 7.869 7.057 12.5 7.057 1.676 0 3.305-.28 4.875-.795V81.001H63.813v13.474z" opacity="0.1" fill="#DDAC8C"/><path d="M94.838 62.653c0-18.162-10.002-28.489-22.338-28.489S50.162 44.491 50.162 62.653c0 24.429 10.002 32.886 22.338 32.886s22.338-9.476 22.338-32.886z" fill="#F1C9A5"/><path d="M91.438 75.247c-4.049-.424-6.783-4.786-6.098-9.739.678-4.957 4.513-8.638 8.564-8.216 4.047.422 6.776 4.782 6.093 9.739-.68 4.957-4.51 8.635-8.559 8.216z" fill="#E4B692"/><path d="M45.161 67.031c-.684-4.957 2.046-9.317 6.091-9.739 4.054-.422 7.889 3.259 8.567 8.216.684 4.953-2.052 9.315-6.1 9.739-4.048.419-7.879-3.259-8.558-8.216z" fill="#F1C9A5"/><path d="M94.838 62.653c0-18.162-10.002-28.489-22.338-28.489v61.375c12.336 0 22.338-9.476 22.338-32.886z" fill="#E4B692"/><path d="M109.374 115.395c-2.899-5.487-14.979-9.777-24.534-12.398L72.5 128.555l-12.34-25.559c-9.556 2.621-21.635 6.911-24.534 12.398C31.957 128.433 28.889 145 28.889 145h87.222s-2.072-17.764-6.737-29.605z" fill="#3A526E"/><g><path d="M87.617 106.226c-1.218-3.728-4.639-4.106-4.639-4.106l-3.729 9.393 9.203 8.554a2074.1 2074.1 0 0 0-.835-13.841z" fill="#FFFFFF"/></g><g><path d="M61.991 102.119s-3.422.379-4.64 4.106c-.38 5.856-.836 13.84-.836 13.84l9.203-8.554-3.727-9.392z" fill="#FFFFFF"/></g><path d="M54.196 104.775c-8.071 2.615-16.253 6.234-18.57 10.619C31.957 128.433 28.889 145 28.889 145h25.308l-.001-40.225zm35.634-.31V145h26.281s-2.072-17.764-6.737-29.605c-2.411-4.563-11.168-8.294-19.544-10.93z" fill="#161510"/><path d="M92.895 62.346a2.752 2.752 0 0 0-.844-.818c-.863-.555-2.163-.821-3.983-.821-1.635 0-3.406.21-4.969.396-.363.042-.714.084-1.044.121-4.286.474-6.653 1.413-7.674 3.042a3.68 3.68 0 0 0-.548 1.73c-.959-.339-1.901-.191-2.656.124a3.716 3.716 0 0 0-.557-1.854c-1.021-1.629-3.388-2.568-7.674-3.042-.33-.037-.681-.079-1.044-.121-1.563-.187-3.335-.396-4.968-.396-.365 0-.708.013-1.032.035-1.947.127-3.166.646-3.796 1.604-.349.532-.478 1.176-.401 1.922.057.54.219 1.132.5 1.78 2.477 5.711 5.63 8.475 9.92 8.696.172.009.356.015.549.015 2.896 0 6.353-1.021 7.37-3.885l.028-.081c.385-1.081.744-2.099.945-3.05.141-.106.381-.262.688-.391.505-.213 1.185-.337 1.893 0 .116.054.231.118.348.199.189 1.007.572 2.088.981 3.241l.029.081c1.018 2.863 4.475 3.885 7.37 3.885.192 0 .377-.006.549-.015 4.29-.222 7.442-2.985 9.921-8.696.276-.636.437-1.222.496-1.756.084-.755-.045-1.407-.397-1.945M76.22 70.425l-.028-.081c-.453-1.275-.869-2.449-.988-3.457l.018-.02c-.007-.006-.015-.011-.022-.02-.08-.717-.007-1.351.317-1.871.763-1.215 2.949-2.008 6.687-2.421.333-.037.688-.079 1.055-.123 1.525-.181 3.256-.386 4.811-.386 2.01 0 3.257.349 3.707 1.034.339.516.269 1.336-.207 2.435-2.284 5.261-4.985 7.694-8.76 7.891-.15.008-.313.013-.48.013-.847 0-5.099-.146-6.11-2.994m-7.439 0c-1.013 2.849-5.265 2.994-6.107 2.994-.169 0-.329-.005-.48-.013-3.775-.196-6.476-2.63-8.76-7.891-.477-1.099-.546-1.919-.207-2.435.45-.686 1.697-1.034 3.708-1.034 1.554 0 3.283.205 4.809.386.367.044.722.086 1.055.123 3.736.413 5.924 1.206 6.686 2.421.786 1.256.109 3.161-.674 5.367l-.03.082z" fill="#26232C"/><path d="M76.22 70.425l-.028-.081c-.453-1.275-.869-2.449-.988-3.457l.018-.02c-.007-.006-.015-.011-.022-.02-.08-.717-.007-1.351.317-1.871.763-1.215 2.949-2.008 6.687-2.421.333-.037.688-.079 1.055-.123 1.525-.181 3.256-.386 4.811-.386 2.01 0 3.257.349 3.707 1.034.339.516.269 1.336-.207 2.435-2.284 5.261-4.985 7.694-8.76 7.891-.15.008-.313.013-.48.013-.847 0-5.099-.146-6.11-2.994m-7.439 0c-1.013 2.849-5.265 2.994-6.107 2.994-.169 0-.329-.005-.48-.013-3.775-.196-6.476-2.63-8.76-7.891-.477-1.099-.546-1.919-.207-2.435.45-.686 1.697-1.034 3.708-1.034 1.554 0 3.283.205 4.809.386.367.044.722.086 1.055.123 3.736.413 5.924 1.206 6.686 2.421.786 1.256.109 3.161-.674 5.367l-.03.082z" fill="#FFFFFF"/><path d="M87.415 44.403s.486 8.495-13.363 19.015c3.402-4.855 3.402-8.093 3.402-8.093s-2.856 5.184-11.239 10.343c1.003-2.199 3.828-10.166 3.828-10.166s-5.378 7.207-8.11 11.758c1.094-3.641 1.731-9.101 6.743-13.273-4.556 2.199-11.573 8.723-11.299 16.991-1.642-1.973-1.186-8.875-1.186-8.875s-4.099 3.186-2.733 15.474c-1.457-1.517-3.189-14.564-3.189-14.564s-3.067 2.327-2.702 9.709c-4.033-4.585-14.626-31.881 21.746-41.467 0 0 21.926-4.812 28.61 11.277 7.686 18.494 2.179 30.438-3.461 35.802 1.275-4.854 2.46-8.798 1.73-10.998-1.365 4.324-5.558 5.234-5.558 5.234s5.103-5.993 4.739-9.33c-3.829 5.083-8.384 5.916-8.839 5.765 6.924-7.66 6.924-11.227 6.651-13.958-3.007 6.298-6.379 7.739-6.379 7.739s5.468-9.18 5.468-13.199c-3.736 5.612-4.465 5.841-6.015 7.13 2.737-3.566 2.492-9.683 1.156-12.314z" fill="#5A3017"/></svg>