<?xml version="1.0" encoding="iso-8859-1"?>
<!-- Generator: Adobe Illustrator 19.0.0, SVG Export Plug-In . SVG Version: 6.00 Build 0)  -->
<svg version="1.1" id="Layer_1" xmlns="http://www.w3.org/2000/svg" xmlns:xlink="http://www.w3.org/1999/xlink" x="0px" y="0px"
	 viewBox="0 0 145 145" style="enable-background:new 0 0 145 145;" xml:space="preserve">
<g id="men_7">
	<rect style="fill:#107D7A;" width="145" height="145"/>
	<g>
		<g>
			<g>
				<g>
					<path style="fill:#F1C9A5;" d="M109.374,115.394c-4.963-9.396-36.873-15.292-36.873-15.292s-31.912,5.896-36.875,15.292
						C31.956,128.433,28.888,145,28.888,145h43.613h43.611C116.112,145,114.04,127.236,109.374,115.394z"/>
					<path style="fill:#E4B692;" d="M72.501,100.102c0,0,31.91,5.896,36.873,15.292c4.666,11.842,6.738,29.606,6.738,29.606H72.501
						V100.102z"/>
					<rect x="63.813" y="81.001" style="fill:#F1C9A5;" width="17.373" height="29.077"/>
					<rect x="72.501" y="81.001" style="fill:#E4B692;" width="8.686" height="29.077"/>
					<path style="opacity:0.1;fill:#DDAC8C;enable-background:new    ;" d="M63.813,94.474c1.563,4.485,7.867,7.057,12.498,7.057
						c1.676,0,3.307-0.281,4.875-0.795V81.001H63.813V94.474z"/>
					<path style="fill:#F1C9A5;" d="M94.837,62.653c0-18.162-10-28.489-22.336-28.489c-12.338,0-22.338,10.327-22.338,28.489
						c0,24.429,10,32.886,22.338,32.886C84.837,95.539,94.837,86.063,94.837,62.653z"/>
					<path style="fill:#F1C9A5;" d="M94.837,62.653c0-18.162-10-28.489-22.336-28.489c-12.338,0-22.338,10.327-22.338,28.489
						c0,24.429,10,32.886,22.338,32.886C84.837,95.539,94.837,86.063,94.837,62.653z"/>
					<path style="fill:#E4B692;" d="M91.438,75.247c-4.049-0.424-6.783-4.787-6.098-9.739c0.678-4.957,4.512-8.638,8.563-8.216
						c4.047,0.422,6.777,4.783,6.094,9.74C99.317,71.988,95.487,75.665,91.438,75.247z"/>
					<path style="fill:#F1C9A5;" d="M45.161,67.031c-0.684-4.957,2.047-9.318,6.092-9.74c4.053-0.422,7.887,3.259,8.566,8.216
						c0.684,4.953-2.053,9.315-6.1,9.739C49.671,75.665,45.841,71.988,45.161,67.031z"/>
					<path style="fill:#E4B692;" d="M94.837,62.653c0-18.162-10-28.489-22.336-28.489v61.375
						C84.837,95.539,94.837,86.063,94.837,62.653z"/>
					<path style="fill:#231F20;" d="M109.374,115.394c-3.18-6.021-17.418-10.601-27.242-13.117c-0.381,4.99-4.543,8.923-9.631,8.923
						s-9.252-3.933-9.633-8.923c-9.824,2.516-24.06,7.096-27.242,13.117C31.956,128.433,28.888,145,28.888,145h43.613h43.611
						C116.112,145,114.04,127.236,109.374,115.394z"/>
				</g>
				<g>
					<path style="fill:#231F20;" d="M51.991,65.626v4.021c0,1.841,1.506,3.347,3.348,3.347h11.127c1.842,0,3.348-1.506,3.348-3.347
						v-2.698h0.01c0-1.479,1.199-2.677,2.68-2.677v-2.703c-2.248,0-2.463-1.405-4.777-1.405h-1.26h-0.66H55.339
						c-1.842,0-3.348,1.506-3.348,3.347v0.44"/>
					<path style="fill:#231F20;" d="M93.009,63.952v-0.44c0-1.841-1.506-3.347-3.348-3.347H79.194h-0.658h-1.258
						c-2.316,0-2.533,1.405-4.775,1.405v2.703c1.476,0,2.674,1.198,2.674,2.677h0.01v2.698c0,1.841,1.508,3.347,3.35,3.347h11.125
						c1.842,0,3.348-1.506,3.348-3.347v-4.021"/>
				</g>
			</g>
		</g>
		<path style="fill:#262421;" d="M85.888,39.131c0,0-6.584-5.565-4.656-16.518c-2.219,3.328-4.254,7.396-4.254,7.396
			s-3.592-1.627-1.848-7.396c-1.664,0.555-3.328,2.589-3.143,4.808c-1.48-3.328-4.012-7.591,3.391-10.55
			c-6.277-2.034-11.764,3.466-10.635,11.045c-3.258-1.462-4.586-5.318-4.588-9c-1.85,4.252-1.664,9.429,0,11.278
			c-5.732-4.438-9.061-2.181-9.061-2.181c2.588,1.811,3.697,4.585,3.697,4.585s-9.061-0.74-10.354-8.69
			c-1.664,4.252-0.371,13.496,9.984,14.977c-3.883,4.438-2.219,10.907-0.74,12.941c3.143-9.798,9.688-14.757,16.578-13.34
			C82.761,41.058,85.888,39.131,85.888,39.131z"/>
	</g>
</g>
<g>
</g>
<g>
</g>
<g>
</g>
<g>
</g>
<g>
</g>
<g>
</g>
<g>
</g>
<g>
</g>
<g>
</g>
<g>
</g>
<g>
</g>
<g>
</g>
<g>
</g>
<g>
</g>
<g>
</g>
</svg>
