<svg xmlns="http://www.w3.org/2000/svg" viewBox="0 0 145 145"><path fill="#9364A8" d="M0 0H145V145H0z"/><path d="M44.388 101.531H97.63c5.85-1.428 11.301-5.104 11.301-8.182.002-6.799-3.691-7.704-1.156-13.565 2.533-5.861 2.715-14.082-3.111-20.508-7.186-7.92-1.621-9.573-7.031-20.523C91.39 26.117 82.3 23.376 73.593 26.141c0 0-10.773-2.535-19.961 4.434-9.188 6.97-4.309 16.888-13.18 24.809-8.869 7.919-7.604 15.046-2.693 23.759 4.748 8.426-6.166 15.119 6.629 22.388z" fill="#471B18"/><path d="M109.374 115.394c-4.963-9.396-36.875-15.291-36.875-15.291s-31.91 5.896-36.873 15.291C31.956 128.433 29.544 145 29.544 145h42.955l42.795-.094s-1.256-17.67-5.92-29.512z" fill="#F1C9A5"/><path d="M72.499 100.103s31.912 5.896 36.875 15.291c4.664 11.842 6.42 29.606 6.42 29.606H72.499v-44.897z" fill="#E4B692"/><path fill="#F1C9A5" d="M63.811 81H81.186V110.077H63.811z"/><path fill="#E4B692" d="M72.499 81H81.187V110.077H72.499z"/><path d="M63.812 94.475c1.563 4.485 7.869 7.056 12.5 7.056 1.676 0 3.307-.28 4.875-.794V81H63.812v13.475z" opacity="0.1" fill="#DDAC8C"/><path d="M94.837 62.653c0-18.162-10-28.489-22.338-28.489-12.336 0-22.336 10.328-22.336 28.489 0 18.162 10 32.886 22.336 32.886 12.338 0 22.338-14.724 22.338-32.886z" fill="#F1C9A5"/><path d="M91.437 75.245c-4.049-.451-6.783-5.088-6.098-10.352.678-5.269 4.512-9.18 8.564-8.732 4.047.449 6.775 5.083 6.092 10.353-.678 5.268-4.51 9.175-8.558 8.731z" fill="#E4B692"/><path d="M45.159 66.513c-.684-5.269 2.047-9.904 6.092-10.353 4.053-.448 7.889 3.463 8.568 8.732.684 5.264-2.053 9.901-6.1 10.352-4.05.445-7.88-3.462-8.56-8.731z" fill="#F1C9A5"/><path d="M94.837 62.653c0-18.162-10-28.489-22.338-28.489v61.375c12.338 0 22.338-14.724 22.338-32.886z" fill="#E4B692"/><path d="M72.444 43.852s.537 8.154 8.742 8.864c8.205.709 9.27 6.721 7.674 12.136-1.596 5.415-2.307 8.43 2.127 12.685 4.432 4.254-.531 20.685-.531 20.685l16.311-7.762s-3.48-13.193-1.596-20.547c1.885-7.353-6.561-12.586-8.688-17.905S83.674 27.5 75.032 28.958c-8.645 1.457-7.774 10.64-7.774 10.64l5.186 4.254z" fill="#471B18"/><path d="M109.374 115.394c-3.285-6.216-18.359-10.951-28.188-13.41v-4.886H63.812v4.808c-9.83 2.459-24.904 7.272-28.186 13.488C31.956 128.433 28.888 145 28.888 145H116.112s-2.074-17.764-6.738-29.606z" fill="#0A7E75"/><path d="M46.306 101.531h4.588C48.575 93.671 57.2 89.328 58.19 81c1.244-10.484-8.027-18.348 2.658-23.497 6.781-3.267 11.596-13.651 11.596-13.651l1.148-14.895-17.1 3.46-9.563 20.476s-6.646 18.083-6.381 18.753c.267.67 5.758 29.885 5.758 29.885z" fill="#471B18"/></svg>