<svg enable-background="new 0 0 145 145" viewBox="0 0 145 145" xmlns="http://www.w3.org/2000/svg"><path d="m0 0h145v145h-145z" fill="#876450"/><path d="m49.646 74.68s3.857 14.342 13.682 17.958c15.342 0 17.859.322 17.859.322s11.822-4.246 15.984-20.95c-2.395-25.392-19.945-33.192-19.945-33.192z" fill="#10303f"/><path d="m108.981 115.699c-4.963-9.396-36.482-15.597-36.482-15.597s-31.622 5.701-36.944 15.544c-3.67 13.038-6.428 29.198-6.428 29.198l43.372.156 42.712-.197s-1.566-17.262-6.23-29.104z" fill="#f1c9a5"/><path d="m72.499 100.103s31.912 5.896 36.875 15.292c4.664 11.842 6.738 29.605 6.738 29.605h-43.613z" fill="#e4b692"/><path d="m63.813 81.001h17.373v29.077h-17.373z" fill="#f1c9a5"/><path d="m72.499 81.001h8.688v29.077h-8.688z" fill="#e4b692"/><path d="m63.813 94.475c1.561 4.485 7.867 7.057 12.498 7.057 1.676 0 3.307-.28 4.875-.795v-19.736h-17.373z" fill="#ddac8c" opacity=".1"/><path d="m94.837 62.653c0-18.162-10-28.489-22.338-28.489-12.336 0-22.338 10.327-22.338 28.489s10.002 32.886 22.338 32.886c12.338 0 22.338-14.724 22.338-32.886z" fill="#f1c9a5"/><path d="m92.235 75.247c-4.049-.416-6.783-4.711-6.098-9.586.678-4.878 4.512-8.5 8.564-8.084 4.047.415 6.15 4.743 5.467 9.622-.677 4.878-3.884 8.46-7.933 8.048z" fill="#e4b692"/><path d="m44.407 67.162c-.684-4.879 2.047-9.17 6.092-9.585 4.053-.416 7.889 3.206 8.566 8.084.684 4.875-2.051 9.17-6.1 9.586-4.048.412-7.878-3.207-8.558-8.085z" fill="#f1c9a5"/><path d="m94.837 62.653c0-18.162-10-28.489-22.338-28.489v61.375c12.338 0 22.338-14.724 22.338-32.886z" fill="#e4b692"/><path d="m71.753 38.748c11.531 0 21.109 6.656 23.059 15.418.238-1.069.369-2.17.369-3.294 0-10.333-10.488-18.712-23.428-18.712-12.938 0-23.426 8.379-23.426 18.712 0 1.124.131 2.225.371 3.294 1.948-8.762 11.526-15.418 23.055-15.418z" fill="#fae43e"/><path d="m109.374 115.395c-1.311-2.481-4.506-4.716-8.49-6.665-6.246 1.154-16.627 1.91-28.385 1.91s-22.137-.756-28.383-1.91c-3.986 1.949-7.18 4.184-8.49 6.665-3.67 13.038-6.738 29.605-6.738 29.605h43.611 43.613s-2.074-17.764-6.738-29.605z" fill="#1d3d4c"/><path d="m87.29 43.611s.488 9.795-13.381 21.922c3.408-5.597 3.408-9.329 3.408-9.329s-2.861 5.977-11.256 11.924c1.004-2.535 3.834-11.719 3.834-11.719s-5.385 8.308-8.121 13.555c1.096-4.197 1.732-10.493 6.752-15.303-4.563 2.535-11.588 10.056-11.314 19.589-1.643-2.274-1.186-10.231-1.186-10.231s-4.105 3.673-2.738 17.839c-1.459-1.748-3.193-16.79-3.193-16.79s-3.07 2.682-2.707 11.193c-3.527-6.064-14.645-36.757 21.777-47.808 0 0 20.072-4.49 28.648 13.001 8.578 17.49.549 35.157-3.467 41.278 1.277-5.597 2.463-10.145 1.734-12.68-1.369 4.984-5.566 6.034-5.566 6.034s5.109-6.909 4.746-10.758c-3.834 5.86-8.394 6.821-8.852 6.646 6.934-8.832 6.934-12.943 6.662-16.091-3.012 7.259-6.389 8.921-6.389 8.921s5.475-10.583 5.475-15.218c-3.74 6.471-4.469 6.734-6.021 8.221 2.739-4.109 2.493-11.162 1.155-14.196z" fill="#10303f"/><g fill="#f06b7e"><path d="m73.026 122.079 2.082 6.413h6.745l-5.457 3.962 2.083 6.412-5.453-3.963-5.455 3.963 2.084-6.412-5.455-3.962h6.742z"/><path d="m85.505 127.221 1.514 4.66h4.898l-3.963 2.88 1.514 4.657-3.963-2.88-3.963 2.88 1.514-4.657-3.963-2.88h4.898z"/><path d="m59.128 127.221 1.512 4.66h4.9l-3.963 2.88 1.514 4.657-3.963-2.88-3.965 2.88 1.516-4.657-3.965-2.88h4.898z"/></g></svg>