<?xml version="1.0" encoding="iso-8859-1"?>
<!-- Generator: Adobe Illustrator 19.0.0, SVG Export Plug-In . SVG Version: 6.00 Build 0)  -->
<svg version="1.1" id="Layer_1" xmlns="http://www.w3.org/2000/svg" xmlns:xlink="http://www.w3.org/1999/xlink" x="0px" y="0px"
	 viewBox="0 0 145 145" style="enable-background:new 0 0 145 145;" xml:space="preserve">
<g id="women_6">
	<rect style="fill:#3C4A7B;" width="145" height="145"/>
	<g>
		<g>
			<g>
				<g>
					<ellipse style="fill:#231F20;" cx="72.501" cy="57.721" rx="31.522" ry="31.728"/>
					<path style="fill:#F1C9A5;" d="M109.375,115.395c-4.965-9.396-36.875-15.292-36.875-15.292s-31.91,5.896-36.875,15.292
						C31.957,128.433,28.889,145,28.889,145H72.5h43.611C116.111,145,114.039,127.236,109.375,115.395z"/>
					<path style="fill:#E4B692;" d="M72.5,100.103c0,0,31.91,5.896,36.875,15.292c4.664,11.842,6.736,29.605,6.736,29.605H72.5
						V100.103z"/>
					<rect x="63.812" y="81.001" style="fill:#F1C9A5;" width="17.375" height="29.077"/>
					<rect x="72.5" y="81.001" style="fill:#E4B692;" width="8.688" height="29.077"/>
					<path style="opacity:0.1;fill:#DDAC8C;enable-background:new    ;" d="M63.813,94.475c1.563,4.485,7.869,7.057,12.5,7.057
						c1.676,0,3.305-0.28,4.875-0.795V81.001H63.813V94.475z"/>
					<path style="fill:#F1C9A5;" d="M94.838,62.653c0-18.162-10.002-28.489-22.338-28.489S50.162,44.491,50.162,62.653
						c0,18.161,10.002,32.886,22.338,32.886S94.838,80.814,94.838,62.653z"/>
					<path style="fill:#E4B692;" d="M92.236,75.247c-4.049-0.416-6.783-4.711-6.098-9.586c0.676-4.878,4.512-8.5,8.563-8.084
						c4.047,0.415,6.777,4.706,6.094,9.585C100.115,72.04,96.285,75.659,92.236,75.247z"/>
					<path style="fill:#F1C9A5;" d="M44.408,67.162c-0.684-4.879,2.045-9.17,6.092-9.585c4.053-0.416,7.887,3.206,8.566,8.084
						c0.684,4.875-2.053,9.17-6.1,9.586C48.918,75.659,45.088,72.04,44.408,67.162z"/>
					<path style="fill:#E4B692;" d="M94.838,62.653c0-18.162-10.002-28.489-22.338-28.489v61.375
						C84.836,95.539,94.838,80.814,94.838,62.653z"/>
				</g>
				<path style="fill:#231F20;" d="M73.783,28.605c-13.35,0-25.455,14.867-25.455,28.956c0,0.054,0.004,0.105,0.004,0.159h12.607
					l1.193-9.401v9.401h12.764v-9.401l2.238,9.401h8.1v-7.806l1.943,7.806h9.492c0-0.054,0.002-0.105,0.002-0.159
					C96.672,43.473,87.135,28.605,73.783,28.605z"/>
				<path style="fill:#F9ED32;" d="M71.754,38.748c11.531,0,21.109,6.656,23.059,15.418c0.238-1.069,0.369-2.17,0.369-3.294
					c0-10.333-10.488-18.712-23.428-18.712c-12.938,0-23.426,8.379-23.426,18.712c0,1.124,0.131,2.225,0.369,3.294
					C50.646,45.404,60.225,38.748,71.754,38.748z"/>
			</g>
		</g>
		<path style="fill:#E70420;" d="M109.375,115.395c-3.285-6.216-18.357-10.898-28.188-13.356v-4.862h-0.154
			c-0.824,0.007-5.086,0.179-8.553,2.927c-3.324-2.927-6.432-2.661-8.668-2.927v4.862c-9.83,2.458-24.902,7.141-28.188,13.356
			c-1.707,6.071-3.285,12.905-4.484,18.479h12.154V145H72.5h30.496v-11.127h11.351C113.246,128.088,111.607,121.064,109.375,115.395
			z"/>
		<polyline style="fill:none;stroke:#FFF200;stroke-width:1.1036;stroke-miterlimit:10;" points="81.852,102.038 72.764,107.181 
			63.148,102.038 		"/>
		
			<line style="fill:none;stroke:#FFF200;stroke-width:1.0637;stroke-miterlimit:10;" x1="72.764" y1="107.181" x2="43.295" y2="133.873"/>
	</g>
</g>
<g>
</g>
<g>
</g>
<g>
</g>
<g>
</g>
<g>
</g>
<g>
</g>
<g>
</g>
<g>
</g>
<g>
</g>
<g>
</g>
<g>
</g>
<g>
</g>
<g>
</g>
<g>
</g>
<g>
</g>
</svg>
