<svg xmlns="http://www.w3.org/2000/svg" viewBox="0 0 145 145"><path fill="#DF714E" d="M0 0H145V145H0z"/><path d="M58.731 98.338h26.824s13.773-13.587 13.24-31.219c-.531-17.63-17.373-28.446-32.442-28.446-15.067 0-26.237 37.072-7.622 59.665z" fill="#412E1F"/><path d="M109.374 115.395c-4.963-9.396-36.873-15.293-36.873-15.293s-31.912 5.896-36.875 15.293C31.958 128.434 28.888 145 28.888 145H116.112s-2.072-17.764-6.738-29.605z" fill="#F1C9A5"/><path d="M72.501 100.102s31.91 5.896 36.873 15.293c4.666 11.842 6.738 29.605 6.738 29.605H72.501v-44.898z" fill="#E4B692"/><path fill="#F1C9A5" d="M63.813 81.001H81.188V110.078H63.813z"/><path fill="#E4B692" d="M72.501 81.001H81.188V110.078H72.501z"/><path d="M63.813 94.474c1.563 4.485 7.869 7.058 12.5 7.058 1.676 0 3.305-.28 4.875-.796V81.001H63.813v13.473z" opacity="0.1" fill="#DDAC8C"/><path d="M94.837 62.652c0-18.162-10-28.489-22.336-28.489-12.338 0-22.338 10.327-22.338 28.489s10 32.888 22.338 32.888c12.336 0 22.336-14.726 22.336-32.888z" fill="#F1C9A5"/><path d="M91.438 75.244c-4.049-.451-6.783-5.088-6.098-10.353.678-5.269 4.514-9.179 8.564-8.732 4.047.448 6.777 5.084 6.094 10.353-.679 5.269-4.511 9.176-8.56 8.732z" fill="#E4B692"/><path d="M45.161 66.513c-.684-5.269 2.047-9.904 6.092-10.353 4.053-.447 7.889 3.463 8.568 8.732.684 5.265-2.053 9.901-6.1 10.353-4.048.443-7.88-3.464-8.56-8.732z" fill="#F1C9A5"/><path d="M94.837 62.652c0-18.162-10-28.489-22.336-28.489V95.54c12.336 0 22.336-14.726 22.336-32.888z" fill="#E4B692"/><path d="M116.112 145s-2.072-17.764-6.738-29.605c-2.721-5.154-13.545-9.251-22.77-11.902L72.467 114.59l-14.705-10.914c-9.08 2.655-19.477 6.684-22.137 11.72C31.958 128.434 28.888 145 28.888 145H116.112z" fill="#21503E"/><path d="M63.487 45.618c3.707 6.692 13 10.504 19.705 15.532 11.74 8.8 6.434 28.261 2.363 37.188 14.752-8.574 25.568-22.959 20.141-46.271-5.426-23.312-23.951-33.231-43.113-24.965-15.77-4.135-31.955 19.813-30.09 41.473 1.865 21.656 26.238 29.763 26.238 29.763s-14.537-32.264 4.756-52.72z" fill="#86572B"/><path d="M90.38 104.637s-3.938-1.982-6.863-2c-3.986 2.642-11.049 11.952-11.049 11.952l3.961 4.34s11.593-12.982 13.951-14.292zm-35.824 0s3.938-1.982 6.861-2c3.988 2.642 11.051 11.952 11.051 11.952l-3.961 4.34s-11.592-12.982-13.951-14.292z" fill="#FFFFFF"/><path d="M72.468 114.589s-6.676 7.264-4.814 12.405c1.861 5.143.266 12.057.266 12.057l1.977-.355s1.457-5.872-.867-12.474c-1.09-3.092 1.52-9.199 3.438-11.633z" fill="#FFFFFF"/><path d="M72.425 114.589s-3.443 10.333.332 15.464 4.986 13.388 4.986 13.388l1.727-1.053s-.932-7.047-5.719-13.655c-2.242-3.095-2.178-10.787-1.326-14.144z" fill="#FFFFFF"/></svg>