<svg xmlns="http://www.w3.org/2000/svg" viewBox="0 0 145 145"><path fill="#8C7098" d="M0 0H145V145H0z"/><ellipse cx="72.5" cy="57.383" rx="30.015" ry="31.728" fill="#10303F"/><path d="M109.374 115.394c-4.963-9.396-36.874-15.292-36.874-15.292s-31.911 5.896-36.874 15.292C31.957 128.433 28.888 145 28.888 145h87.224s-2.073-17.764-6.738-29.606z" fill="#F1C9A5"/><path d="M72.5 100.102s31.911 5.896 36.874 15.292c4.665 11.842 6.738 29.606 6.738 29.606H72.5v-44.898z" fill="#E4B692"/><path fill="#F1C9A5" d="M63.813 81.001H81.187V110.078H63.813z"/><path fill="#E4B692" d="M72.5 81.001H81.187V110.078H72.5z"/><path d="M63.813 94.474c1.562 4.485 7.869 7.057 12.5 7.057 1.675 0 3.305-.281 4.874-.795V81.001H63.813v13.473z" opacity="0.1" fill="#DDAC8C"/><path d="M94.838 62.652c0-18.162-10.002-28.489-22.338-28.489S50.162 44.491 50.162 62.652c0 18.162 10.001 32.887 22.338 32.887s22.338-14.725 22.338-32.887z" fill="#F1C9A5"/><path d="M91.438 75.245c-4.049-.451-6.783-5.088-6.098-10.353.677-5.268 4.512-9.18 8.563-8.732 4.047.449 6.777 5.084 6.093 10.353-.678 5.268-4.509 9.176-8.558 8.732z" fill="#E4B692"/><path d="M45.161 66.513c-.684-5.269 2.046-9.904 6.091-10.353 4.053-.448 7.889 3.463 8.568 8.732.684 5.265-2.053 9.901-6.1 10.353-4.049.444-7.88-3.464-8.559-8.732z" fill="#F1C9A5"/><path d="M94.838 62.652c0-18.162-10.002-28.489-22.338-28.489v61.375c12.336.001 22.338-14.724 22.338-32.886z" fill="#E4B692"/><path d="M109.374 115.394a8.485 8.485 0 0 0-1.17-1.646c-5.415 7.129-19.354 12.205-35.703 12.205h-.002c-16.348 0-30.288-5.076-35.704-12.204a8.366 8.366 0 0 0-1.169 1.644C31.957 128.433 28.888 145 28.888 145h87.224s-2.073-17.764-6.738-29.606z" fill="#E00315"/><g><path d="M73.599 83.247c-.524 0-1.099.599-1.099.599s-.574-.599-1.099-.599c-.524 0-1.648.936-2.659 1.048 1.348 1.348 2.909 1.834 3.757 1.834s2.409-.486 3.757-1.834c-1.009-.112-2.133-1.048-2.657-1.048z" fill="#452317"/></g><circle cx="72.5" cy="30.131" r="15.108" fill="#10303F"/><path d="M96.669 60.095c0-.054.004-.106.004-.16 0-14.089-9.538-28.956-22.889-28.956-13.35 0-25.456 14.867-25.456 28.956 0 .054.003.106.003.16h48.338z" fill="#10303F"/><path fill="#10303F" d="M63.813 97.856H81.187V102.036H63.813z"/></svg>