<svg xmlns="http://www.w3.org/2000/svg" viewBox="0 0 145 145"><path fill="#D69648" d="M0 0H145V145H0z"/><path d="M109.374 115.394c-4.963-9.395-36.874-15.291-36.874-15.291s-31.91 5.896-36.874 15.291C31.957 128.432 28.888 145 28.888 145h87.223c.001 0-2.071-17.765-6.737-29.606z" fill="#F1C9A5"/><path d="M72.499 100.103s31.911 5.896 36.874 15.291c4.666 11.842 6.738 29.606 6.738 29.606H72.499v-44.897z" fill="#E4B692"/><path fill="#F1C9A5" d="M63.813 81H81.187V110.077H63.813z"/><path fill="#E4B692" d="M72.499 81H81.187V110.077H72.499z"/><path d="M63.813 94.475c1.561 4.485 7.868 7.055 12.499 7.055 1.676 0 3.306-.28 4.875-.793V81H63.813v13.475z" opacity="0.1" fill="#DDAC8C"/><path d="M94.837 62.653c0-18.162-10.001-28.49-22.338-28.49-12.336 0-22.337 10.328-22.337 28.49 0 24.427 10.001 32.885 22.337 32.885 12.338 0 22.338-9.475 22.338-32.885z" fill="#F1C9A5"/><path d="M91.438 75.247c-4.05-.424-6.783-4.787-6.098-9.739.677-4.957 4.512-8.639 8.563-8.217 4.047.422 6.776 4.782 6.093 9.739-.678 4.957-4.509 8.634-8.558 8.217z" fill="#E4B692"/><path d="M45.161 67.03c-.684-4.957 2.046-9.317 6.091-9.739 4.054-.422 7.889 3.26 8.568 8.217.683 4.952-2.053 9.315-6.1 9.739-4.05.417-7.88-3.26-8.559-8.217z" fill="#F1C9A5"/><path d="M94.837 62.653c0-18.162-10.001-28.49-22.338-28.49v61.375c12.338 0 22.338-9.475 22.338-32.885z" fill="#E4B692"/><path d="M109.374 115.394c-2.465-4.667-11.57-8.467-20.116-11.111-1.94 5.845-8.696 10.163-16.758 10.163-8.06 0-14.817-4.318-16.757-10.163-8.546 2.644-17.652 6.444-20.117 11.111C31.957 128.432 28.888 145 28.888 145h87.223c.001 0-2.071-17.765-6.737-29.606z" fill="#231F20"/><path d="M52.581 105.309c1.46 6.91 9.809 12.212 19.919 12.212s18.459-5.302 19.919-12.212a117.203 117.203 0 0 0-3.161-1.026c-1.94 5.845-8.696 10.163-16.758 10.163-8.06 0-14.817-4.318-16.757-10.163-1.05.324-2.109.666-3.162 1.026z" fill="#FFFFFF"/><g><path d="M66.513 144.571c-3.413 0-5.289-1.969-5.289-5.411v-1.692c0-2.061.615-3.659 2.092-4.491-1.415-.769-2.092-2.214-2.092-4.337v-.676c0-3.444 1.876-5.414 5.289-5.414 3.415 0 5.291 1.97 5.291 5.414v.676c0 2.123-.708 3.568-2.092 4.337 1.477.832 2.092 2.431 2.092 4.491v1.692c0 3.442-1.876 5.411-5.291 5.411zm-1.906-15.286c0 1.723.8 2.277 1.906 2.277 1.077 0 1.907-.555 1.907-2.277v-1.198c0-1.938-.83-2.461-1.907-2.461-1.075 0-1.906.523-1.906 2.461v1.198zm1.906 12.211c1.077 0 1.877-.522 1.907-2.43v-1.999c0-1.692-.707-2.43-1.907-2.43-1.199 0-1.906.737-1.906 2.43v1.999c0 1.908.831 2.43 1.906 2.43zm17.262-2.521c0 3.628-1.661 5.597-5.167 5.597-3.321 0-5.044-1.969-5.044-5.411v-.555h3.198v.769c0 1.538.677 2.122 1.753 2.122 1.2 0 1.876-.584 1.876-2.645v-3.937c-.584 1.23-1.63 1.907-3.137 1.907-2.491 0-3.753-1.753-3.753-4.921v-3.938c0-3.444 1.816-5.414 5.137-5.414 3.322 0 5.137 1.97 5.137 5.414v11.012zm-3.384-7.351v-3.876c0-1.537-.676-2.09-1.753-2.09-1.075 0-1.753.553-1.753 2.09v3.876c0 1.538.678 2.121 1.753 2.121 1.077 0 1.753-.583 1.753-2.121z" fill="#FFFFFF"/></g><path d="M95.004 57.259c-.891-14.288-10.622-25.543-22.505-25.543-11.882 0-21.613 11.255-22.504 25.543h45.009z" fill="#231F20"/></svg>