<svg xmlns="http://www.w3.org/2000/svg" viewBox="0 0 145 145"><path fill="#161510" d="M0 0H145V145H0z"/><ellipse cx="72.5" cy="57.721" rx="30.016" ry="31.728" fill="#EC9A1C"/><path d="M109.373 115.395c-4.963-9.396-36.873-15.292-36.873-15.292s-31.912 5.896-36.875 15.292C31.957 128.433 29.174 145 29.174 145h86.25s-1.385-17.764-6.051-29.605z" fill="#F1C9A5"/><path d="M72.5 100.103s31.91 5.896 36.873 15.292c4.666 11.842 6.051 29.605 6.051 29.605H72.5v-44.897z" fill="#E4B692"/><path fill="#F1C9A5" d="M63.812 81.001H81.187V110.078H63.812z"/><path fill="#E4B692" d="M72.5 81.001H81.188V110.078H72.5z"/><path d="M63.813 94.475c1.563 4.485 7.869 7.057 12.5 7.057 1.676 0 3.305-.28 4.875-.795V81.001H63.813v13.474z" opacity="0.1" fill="#DDAC8C"/><path d="M94.838 62.653c0-18.162-10.002-28.489-22.338-28.489S50.162 44.491 50.162 62.653 60.164 95.539 72.5 95.539s22.338-14.724 22.338-32.886z" fill="#F1C9A5"/><path d="M92.234 75.245c-4.049-.451-6.783-5.088-6.096-10.353.676-5.269 4.512-9.18 8.563-8.732 4.047.448 6.777 5.083 6.094 10.352-.68 5.27-4.51 9.177-8.561 8.733z" fill="#E4B692"/><path d="M44.098 66.513c-.684-5.269 2.045-9.903 6.09-10.352 4.055-.448 7.889 3.463 8.568 8.732.684 5.265-2.053 9.901-6.1 10.353-4.049.443-7.881-3.464-8.558-8.733z" fill="#F1C9A5"/><path d="M94.838 62.653c0-18.162-10.002-28.489-22.338-28.489v61.375c12.336 0 22.338-14.724 22.338-32.886z" fill="#E4B692"/><circle cx="72.5" cy="28.475" r="15.107" fill="#EC9A1C"/><g fill="none" stroke="#FFFFFF" stroke-width="1.9426" stroke-linecap="round" stroke-linejoin="round"><path d="M59.227 103.094v.034"/><path d="M59.479 105.718c1.224 6.252 6.732 10.969 13.345 10.969 7.056 0 12.86-5.378 13.531-12.26" stroke-dasharray="0.0651,2.6035"/><path d="M86.42 103.128v-.034"/></g><path d="M72.5 128.768c-15.166 0-28.816-2.991-38.367-7.766C31.16 132.732 28.889 145 28.889 145h87.222s-1.519-13.004-4.881-24.177c-9.564 4.88-23.373 7.945-38.73 7.945z" fill="#92278F"/><path d="M46.994 107.426v19.933h3.168v-21.187a77.946 77.946 0 0 0-3.168 1.254zm53.906 1.314a57.59 57.59 0 0 0-3.17-1.43v20.048h3.17V108.74z" fill="#92278F"/><path d="M50.188 56.161s24.633.009 31-9.564c5.303 7.978 13.65 9.588 13.65 9.588l-.533-16.502-14.994-8.775-27.885 5.052-1.238 20.201z" fill="#EC9A1C"/><path fill="#92278F" d="M63.812 97.654H81.187V102.03699999999999H63.812z"/><path fill="#FFFFFF" d="M93.242 72.657H95.369V74.785H93.242z"/><path fill="#FFFFFF" d="M50.363 72.657H52.49V74.785H50.363z"/></svg>