<svg xmlns="http://www.w3.org/2000/svg" viewBox="0 0 145 145"><path fill="#3C4A7B" d="M0 0H145V145H0z"/><ellipse cx="72.501" cy="57.721" rx="31.522" ry="31.728" fill="#231F20"/><path d="M109.375 115.395c-4.965-9.396-36.875-15.292-36.875-15.292s-31.91 5.896-36.875 15.292C31.957 128.433 28.889 145 28.889 145h87.222s-2.072-17.764-6.736-29.605z" fill="#F1C9A5"/><path d="M72.5 100.103s31.91 5.896 36.875 15.292c4.664 11.842 6.736 29.605 6.736 29.605H72.5v-44.897z" fill="#E4B692"/><path fill="#F1C9A5" d="M63.812 81.001H81.187V110.078H63.812z"/><path fill="#E4B692" d="M72.5 81.001H81.188V110.078H72.5z"/><path d="M63.813 94.475c1.563 4.485 7.869 7.057 12.5 7.057 1.676 0 3.305-.28 4.875-.795V81.001H63.813v13.474z" opacity="0.1" fill="#DDAC8C"/><path d="M94.838 62.653c0-18.162-10.002-28.489-22.338-28.489S50.162 44.491 50.162 62.653c0 18.161 10.002 32.886 22.338 32.886s22.338-14.725 22.338-32.886z" fill="#F1C9A5"/><path d="M92.236 75.247c-4.049-.416-6.783-4.711-6.098-9.586.676-4.878 4.512-8.5 8.563-8.084 4.047.415 6.777 4.706 6.094 9.585-.68 4.878-4.51 8.497-8.559 8.085z" fill="#E4B692"/><path d="M44.408 67.162c-.684-4.879 2.045-9.17 6.092-9.585 4.053-.416 7.887 3.206 8.566 8.084.684 4.875-2.053 9.17-6.1 9.586-4.048.412-7.878-3.207-8.558-8.085z" fill="#F1C9A5"/><path d="M94.838 62.653c0-18.162-10.002-28.489-22.338-28.489v61.375c12.336 0 22.338-14.725 22.338-32.886z" fill="#E4B692"/><path d="M73.783 28.605c-13.35 0-25.455 14.867-25.455 28.956 0 .054.004.105.004.159h12.607l1.193-9.401v9.401h12.764v-9.401l2.238 9.401h8.1v-7.806l1.943 7.806h9.492l.002-.159c.001-14.088-9.536-28.956-22.888-28.956z" fill="#231F20"/><path d="M71.754 38.748c11.531 0 21.109 6.656 23.059 15.418.238-1.069.369-2.17.369-3.294 0-10.333-10.488-18.712-23.428-18.712-12.938 0-23.426 8.379-23.426 18.712 0 1.124.131 2.225.369 3.294 1.949-8.762 11.528-15.418 23.057-15.418z" fill="#F9ED32"/><path d="M109.375 115.395c-3.285-6.216-18.357-10.898-28.188-13.356v-4.862h-.154c-.824.007-5.086.179-8.553 2.927-3.324-2.927-6.432-2.661-8.668-2.927v4.862c-9.83 2.458-24.902 7.141-28.188 13.356-1.707 6.071-3.285 12.905-4.484 18.479h12.154V145h59.702v-11.127h11.351c-1.101-5.785-2.74-12.809-4.972-18.478z" fill="#E70420"/><path fill="none" stroke="#FFF200" stroke-width="1.1036" stroke-miterlimit="10" d="M81.852 102.038L72.764 107.181 63.148 102.038"/><path fill="none" stroke="#FFF200" stroke-width="1.0637" stroke-miterlimit="10" d="M72.764 107.181L43.295 133.873"/></svg>