<svg xmlns="http://www.w3.org/2000/svg" viewBox="0 0 145 145"><path fill="#107D7A" d="M0 0H145V145H0z"/><path d="M109.374 115.394c-4.963-9.396-36.873-15.292-36.873-15.292s-31.912 5.896-36.875 15.292C31.956 128.433 28.888 145 28.888 145H116.112s-2.072-17.764-6.738-29.606z" fill="#F1C9A5"/><path d="M72.501 100.102s31.91 5.896 36.873 15.292c4.666 11.842 6.738 29.606 6.738 29.606H72.501v-44.898z" fill="#E4B692"/><path fill="#F1C9A5" d="M63.813 81.001H81.186V110.078H63.813z"/><path fill="#E4B692" d="M72.501 81.001H81.18700000000001V110.078H72.501z"/><path d="M63.813 94.474c1.563 4.485 7.867 7.057 12.498 7.057 1.676 0 3.307-.281 4.875-.795V81.001H63.813v13.473z" opacity="0.1" fill="#DDAC8C"/><path d="M94.837 62.653c0-18.162-10-28.489-22.336-28.489-12.338 0-22.338 10.327-22.338 28.489 0 24.429 10 32.886 22.338 32.886 12.336 0 22.336-9.476 22.336-32.886z" fill="#F1C9A5"/><path d="M94.837 62.653c0-18.162-10-28.489-22.336-28.489-12.338 0-22.338 10.327-22.338 28.489 0 24.429 10 32.886 22.338 32.886 12.336 0 22.336-9.476 22.336-32.886z" fill="#F1C9A5"/><path d="M91.438 75.247c-4.049-.424-6.783-4.787-6.098-9.739.678-4.957 4.512-8.638 8.563-8.216 4.047.422 6.777 4.783 6.094 9.74-.68 4.956-4.51 8.633-8.559 8.215z" fill="#E4B692"/><path d="M45.161 67.031c-.684-4.957 2.047-9.318 6.092-9.74 4.053-.422 7.887 3.259 8.566 8.216.684 4.953-2.053 9.315-6.1 9.739-4.048.419-7.878-3.258-8.558-8.215z" fill="#F1C9A5"/><path d="M94.837 62.653c0-18.162-10-28.489-22.336-28.489v61.375c12.336 0 22.336-9.476 22.336-32.886z" fill="#E4B692"/><path d="M109.374 115.394c-3.18-6.021-17.418-10.601-27.242-13.117-.381 4.99-4.543 8.923-9.631 8.923s-9.252-3.933-9.633-8.923c-9.824 2.516-24.06 7.096-27.242 13.117C31.956 128.433 28.888 145 28.888 145H116.112s-2.072-17.764-6.738-29.606z" fill="#231F20"/><g fill="#231F20"><path d="M51.991 65.626v4.021a3.357 3.357 0 0 0 3.348 3.347h11.127a3.357 3.357 0 0 0 3.348-3.347v-2.698h.01a2.678 2.678 0 0 1 2.68-2.677v-2.703c-2.248 0-2.463-1.405-4.777-1.405H55.339a3.357 3.357 0 0 0-3.348 3.347v.44"/><path d="M93.009 63.952v-.44a3.357 3.357 0 0 0-3.348-3.347H77.278c-2.316 0-2.533 1.405-4.775 1.405v2.703a2.676 2.676 0 0 1 2.674 2.677h.01v2.698a3.359 3.359 0 0 0 3.35 3.347h11.125a3.357 3.357 0 0 0 3.348-3.347v-4.021"/></g><path d="M85.888 39.131s-6.584-5.565-4.656-16.518c-2.219 3.328-4.254 7.396-4.254 7.396s-3.592-1.627-1.848-7.396c-1.664.555-3.328 2.589-3.143 4.808-1.48-3.328-4.012-7.591 3.391-10.55-6.277-2.034-11.764 3.466-10.635 11.045-3.258-1.462-4.586-5.318-4.588-9-1.85 4.252-1.664 9.429 0 11.278-5.732-4.438-9.061-2.181-9.061-2.181 2.588 1.811 3.697 4.585 3.697 4.585s-9.061-.74-10.354-8.69c-1.664 4.252-.371 13.496 9.984 14.977-3.883 4.438-2.219 10.907-.74 12.941 3.143-9.798 9.688-14.757 16.578-13.34 12.502 2.572 15.629.645 15.629.645z" fill="#262421"/></svg>